<svg xmlns="http://www.w3.org/2000/svg" viewBox="0 0 24 24"><title>Vector Smart Object2</title><circle cx="15.5" cy="8.5" r="8" fill="none" stroke="#c3424f" stroke-linecap="round" stroke-linejoin="round"/><path d="M10 14.5H3a2.5 2.5 0 0 0 0 5h17.5a2 2 0 0 1 0 4h-10" fill="none" stroke="#c3424f" stroke-linecap="round" stroke-linejoin="round"/><circle cx="15.5" cy="8.5" r="1.5" fill="none" stroke="#c3424f" stroke-linecap="round" stroke-linejoin="round"/><path d="M16.84 5.29l1-2.29a6.41 6.41 0 0 0-4.59 0l1 2.3a3.49 3.49 0 0 1 2.68 0zM12.5 7.16l-2.5-1a6.4 6.4 0 0 0 0 4.59l2.42-1a2.91 2.91 0 0 1 .11-2.68zm1.66 4.34l-1 2.5a6.41 6.41 0 0 0 4.59 0l-1-2.42a2.91 2.91 0 0 1-2.68-.11zm4.34-1.66l2.5 1a6.41 6.41 0 0 0 0-4.59l-2.42 1a2.91 2.91 0 0 1-.11 2.68z" fill="none" stroke="#c3424f" stroke-linecap="round" stroke-linejoin="round"/></svg>