<svg xmlns="http://www.w3.org/2000/svg" viewBox="0 0 128 128"><title>Google+</title><circle cx="64" cy="64" r="64" fill="#dc4b3e"/><path d="M28.17,64C27.73,52.29,38,41.44,49.77,41.29a22.77,22.77,0,0,1,16.36,5.61c-1.86,2-3.76,4.07-5.77,6-4-2.43-8.8-4.27-13.46-2.63-7.53,2.14-12.08,11-9.3,18.39,2.31,7.69,11.66,11.9,19,8.67,3.8-1.36,6.29-4.86,7.39-8.62-4.35-.09-8.7,0-13-.15,0-2.59,0-5.16,0-7.75,7.25,0,14.52,0,21.78,0,.44,6.34-.49,13.12-4.61,18.21C62.44,86.28,52,88.41,43.53,85.56A22.76,22.76,0,0,1,28.17,64" fill="#fff"/><path d="M86.82,54.24h6.47c0,2.16,0,4.34,0,6.5l6.5,0v6.48l-6.5,0c0,2.17,0,4.34,0,6.51H86.81c0-2.17,0-4.34,0-6.5l-6.5,0V60.79l6.5,0c0-2.16,0-4.34.05-6.5" fill="#fff"/></svg>