<svg xmlns="http://www.w3.org/2000/svg" xmlns:xlink="http://www.w3.org/1999/xlink" viewBox="0 0 440.4 312.61"><defs><linearGradient id="a" x1="102.99" y1="531.97" x2="496" y2="531.97" gradientTransform="matrix(1, 0, 0, -1, -77.8, 577.93)" gradientUnits="userSpaceOnUse"><stop offset="0" stop-color="#688595"/><stop offset="1" stop-color="#55646e"/></linearGradient><linearGradient id="b" x1="199" y1="326.16" x2="399.75" y2="326.16" xlink:href="#a"/><linearGradient id="c" x1="77.8" y1="436.88" x2="92" y2="436.88" gradientTransform="matrix(1, 0, 0, -1, 0, 842)" xlink:href="#a"/><linearGradient id="d" x1="117.84" y1="436.88" x2="180.48" y2="436.88" gradientTransform="matrix(1, 0, 0, -1, 0, 842)" xlink:href="#a"/><linearGradient id="e" x1="185.22" y1="436.88" x2="250.09" y2="436.88" gradientTransform="matrix(1, 0, 0, -1, 0, 842)" xlink:href="#a"/><linearGradient id="f" x1="282.47" y1="436.88" x2="337.04" y2="436.88" gradientTransform="matrix(1, 0, 0, -1, 0, 842)" xlink:href="#a"/><linearGradient id="g" x1="344.74" y1="436.88" x2="392.92" y2="436.88" gradientTransform="matrix(1, 0, 0, -1, 0, 842)" xlink:href="#a"/><linearGradient id="h" x1="399.87" y1="436.88" x2="454.44" y2="436.88" gradientTransform="matrix(1, 0, 0, -1, 0, 842)" xlink:href="#a"/><linearGradient id="i" x1="457.23" y1="436.74" x2="518.2" y2="436.74" gradientTransform="matrix(1, 0, 0, -1, 0, 842)" xlink:href="#a"/></defs><title>iamhero_logo_grey</title><polygon points="57.5 70.76 113.14 23.14 330.15 23.14 385.88 70.76 368.42 91.93 398.41 91.93 418.2 67.95 338.7 0 104.59 0 25.19 67.95 44.97 91.93 74.97 91.93 57.5 70.76" fill="url(#a)"/><polygon points="221.57 276.25 151.19 190.93 121.2 190.93 221.57 312.62 321.95 190.93 291.95 190.93 221.57 276.25" fill="url(#b)"/><path d="M92,435.89H77.8V374.36H92Z" transform="translate(-77.8 -264.07)" fill="url(#c)"/><path d="M180.48,435.89H165.17l-4.46-13.36H137.33l-4.45,13.36h-15l22.83-61.53h16.7Zm-22.27-23.95-7.8-21.16q-.83-2.78-1.39-5.29h-.28a30.5,30.5,0,0,1-1.39,5.57l-7,20.88h17.82Z" transform="translate(-77.8 -264.07)" fill="url(#d)"/><path d="M250.09,435.89H236.72V399.41q0-5.85.56-13.92H237a89.14,89.14,0,0,1-2.23,10.58l-11.41,39.82H211.67L200.25,395q-.83-3.34-2.23-9.47h-.28q0,1.67.28,4.73.27,8.36.28,12v33.69H185.22V374.35h20.6l10.86,40.37q.28,1.67.84,6.68a11.68,11.68,0,0,1,.28-2.23q0-3.62.56-4.46l10.86-40.37h20.88v61.53Z" transform="translate(-77.8 -264.07)" fill="url(#e)"/><path d="M337,435.89H323.12V411.1H296.39v24.78H282.47V374.36h13.92v24.78h26.73V374.36H337Z" transform="translate(-77.8 -264.07)" fill="url(#f)"/><path d="M392.92,435.89H344.74V374.36h47.33v11.41H358.66v13.36h31.19v11.42H358.66V425h34.25v10.86Z" transform="translate(-77.8 -264.07)" fill="url(#g)"/><path d="M454.44,435.61H436.9l-15-23.67h-8.07v23.95H399.87V374.36H428q22.56.56,23.39,18.38.27,15.31-15,18.37Zm-28.68-50.39h-12v16.43h12q11.14,0,10.86-8.07Q437.18,384.94,425.77,385.21Z" transform="translate(-77.8 -264.07)" fill="url(#h)"/><path d="M518.2,405.54q-1.67,29.8-30.35,31.46-29-1.67-30.62-31.46,1.39-30.9,30.62-32Q516.25,375.19,518.2,405.54Zm-15.31,0q-.57-19.21-15.31-20-15,.84-15.87,20,.55,18.93,15.59,19.77Q502.33,424.75,502.89,405.54Z" transform="translate(-77.8 -264.07)" fill="url(#i)"/></svg>