<?xml version="1.0" encoding="utf-8"?>
<!-- Generator: Adobe Illustrator 16.0.0, SVG Export Plug-In . SVG Version: 6.00 Build 0)  -->
<!DOCTYPE svg PUBLIC "-//W3C//DTD SVG 1.1//EN" "http://www.w3.org/Graphics/SVG/1.1/DTD/svg11.dtd">
<svg version="1.1" id="Layer_1" xmlns="http://www.w3.org/2000/svg" xmlns:xlink="http://www.w3.org/1999/xlink" x="0px" y="0px"
	 width="595.28px" height="841.89px" viewBox="0 0 595.28 841.89" enable-background="new 0 0 595.28 841.89" xml:space="preserve">
<polygon fill="#FFFFFF" points="135.301,334.825 190.937,287.207 407.956,287.207 463.682,334.832 446.221,356 476.215,356 
	496,332.015 416.498,264.068 182.388,264.068 102.994,332.021 122.773,356 152.768,356 "/>
<polygon fill="#FFFFFF" points="299.375,540.319 228.996,455 199,455 299.375,576.683 399.748,455 369.752,455 "/>
<path fill="#FFFFFF" d="M92,435.886H77.801v-61.53H92V435.886z"/>
<path fill="#FFFFFF" d="M180.482,435.886h-15.312l-4.458-13.365h-23.387l-4.453,13.365h-15.034l22.829-61.53h16.703L180.482,435.886
	z M158.211,411.94l-7.799-21.158c-0.555-1.854-1.021-3.62-1.391-5.292h-0.278c-0.187,1.488-0.652,3.342-1.391,5.569l-6.962,20.881
	H158.211z"/>
<path fill="#FFFFFF" d="M250.087,435.886h-13.363v-36.474c0-3.897,0.182-8.532,0.556-13.922h-0.275
	c-0.559,3.715-1.301,7.24-2.228,10.58l-11.415,39.815h-11.694l-11.416-40.929c-0.556-2.227-1.302-5.38-2.228-9.467h-0.28
	c0,1.115,0.093,2.693,0.28,4.734c0.182,5.57,0.279,9.56,0.279,11.973v33.688h-13.086v-61.53h20.601l10.86,40.368
	c0.185,1.114,0.461,3.342,0.835,6.685c0-0.558,0.089-1.298,0.278-2.227c0-2.41,0.184-3.898,0.558-4.458l10.859-40.368h20.879
	V435.886z"/>
<path fill="#FFFFFF" d="M337.043,435.886h-13.924v-24.781h-26.727v24.781h-13.92v-61.53h13.92v24.778h26.727v-24.778h13.924V435.886
	z"/>
<path fill="#FFFFFF" d="M392.916,435.886h-48.172v-61.53h47.334v11.413h-33.414v13.365h31.188v11.417h-31.188v14.475h34.252V435.886
	z"/>
<path fill="#FFFFFF" d="M454.443,435.606h-17.541l-15.035-23.666h-8.072v23.945h-13.922v-61.53h28.119
	c15.037,0.373,22.832,6.498,23.389,18.375c0.182,10.209-4.826,16.336-15.035,18.374L454.443,435.606z M425.766,385.212h-11.971
	v16.428h11.971c7.424,0,11.041-2.688,10.861-8.074C436.996,387.815,433.375,385.03,425.766,385.212z"/>
<path fill="#FFFFFF" d="M518.203,405.537c-1.116,19.866-11.232,30.349-30.35,31.463c-19.305-1.114-29.513-11.597-30.623-31.463
	c0.926-20.603,11.136-31.274,30.623-32.017C506.786,374.631,516.9,385.31,518.203,405.537z M502.891,405.537
	c-0.377-12.807-5.479-19.49-15.312-20.047c-10.023,0.557-15.313,7.24-15.873,20.047c0.369,12.623,5.568,19.212,15.594,19.77
	C497.322,424.938,502.514,418.347,502.891,405.537z"/>
</svg>
