<svg xmlns="http://www.w3.org/2000/svg" viewBox="0 0 326.33 441.11"><title>Vector Smart Object</title><polygon points="163.17 0 163.17 441.11 0 163.17 163.17 0" fill="#f7941d"/><polygon points="163.17 0 163.17 441.11 326.33 163.17 163.17 0" fill="#d66927"/><polygon points="163.17 0 0 163.17 163.17 163.17 163.17 0" fill="#fbad45"/><polygon points="163.17 0 326.33 163.17 163.17 163.17 163.17 0" fill="#e78124"/><rect x="2068.08" y="905.17" width="95.76" height="95.76" transform="translate(-2006.95 985.47) rotate(-45)" fill="#505a63"/><polygon points="230.88 163.17 163.17 163.17 163.17 230.88 230.88 163.17" fill="#808285"/><polygon points="95.46 163.17 163.17 163.17 163.17 95.46 95.46 163.17" fill="#3c454c"/><rect x="2097.32" y="934.41" width="37.27" height="37.27" transform="translate(-2006.95 985.47) rotate(-45)" fill="#282e33"/></svg>