<svg xmlns="http://www.w3.org/2000/svg" viewBox="0 0 128 128"><title>Twitter</title><circle cx="64" cy="64" r="64" fill="#55acee"/><path d="M99.84,41.77a29.38,29.38,0,0,1-8.45,2.32,14.75,14.75,0,0,0,6.47-8.14,29.43,29.43,0,0,1-9.34,3.57A14.72,14.72,0,0,0,63.46,52.93,41.75,41.75,0,0,1,33.15,37.57,14.72,14.72,0,0,0,37.7,57.2,14.64,14.64,0,0,1,31,55.36c0,.06,0,.12,0,.19A14.72,14.72,0,0,0,42.84,70a14.74,14.74,0,0,1-6.64.25A14.72,14.72,0,0,0,49.93,80.43a29.5,29.5,0,0,1-18.26,6.3,29.9,29.9,0,0,1-3.51-.21A41.62,41.62,0,0,0,50.7,93.13c27,0,41.84-22.41,41.84-41.84q0-1,0-1.9A29.87,29.87,0,0,0,99.84,41.77Z" fill="#fff"/></svg>