<svg xmlns="http://www.w3.org/2000/svg" viewBox="0 0 886.06 886.06"><title>Asset 1</title><path fill="#808285" d="M0 0h886.06v886.06H0z"/><path fill="#62686e" d="M443.03 0h443.03v886.06H443.03z"/><path fill="#878c93" d="M0 0l443.03 350.86L0 886.07V0z"/><path fill="#f7941d" d="M342.55 144.19l-53 87 9.73 78.22-17.76 17.07-8.76 47.32 27.79 48.39 13.3 4.2 6.7 53.8L351.02 509l-.69 70.42-251.78 94.77-31 61 8.5 150.88h366.98V114.19l-100.48 30z"/><path fill="#e78124" d="M281.52 326.48l28.69 24.38-10.93-41.45-17.76 17.07zm-8.76 47.32l41.09 52.59-13.3-4.2-27.79-48.39z"/><path fill="#fdc07c" d="M98.55 674.19l52.33 97.34-83.33-36.34 31-61z"/><path fill="#e78124" d="M350.33 579.42l52.55 167.44-89.03 24.67 36.48-192.11z"/><path fill="#d66927" d="M443.03 886.07L313.85 771.53l89.03-24.67 40.15 139.21z"/><path fill="#e78124" d="M313.85 771.53L76.05 886.07h366.98L313.85 771.53z"/><path fill="#fbad45" d="M350.33 579.42l92.7 63.44v35.33l-92.7-98.77zM150.88 771.53L76.05 886.07l-8.5-150.88 83.33 36.34z"/><path fill="#505a63" d="M886.07 0L443.03 350.86l443.04 535.21V0z"/><path fill="#3c454c" d="M886.07 0L648.15 598.65l237.92-112.58V0zM668 172.69L443.03 0h443.04L668 172.69z"/><path fill="#fbad45" d="M150.88 771.53l199.45-192.11-251.78 94.77 52.33 97.34z"/><path fill="#e78124" d="M543.52 144.19l53 87-9.74 78.22 17.76 17.07 8.76 47.32-27.78 48.39-13.3 4.2-6.7 53.8L535.04 509l.7 70.42 251.78 94.77 31 61-8.5 150.88H443.03V114.19l100.49 30z"/><path fill="#d66927" d="M604.54 326.48l-28.69 24.38 10.93-41.45 17.76 17.07zM351.02 509l92.01 65.19 15.26 58.23L351.02 509zM613.3 373.8l-41.08 52.59 13.3-4.2 27.78-48.39z"/><path fill="#cc6328" d="M787.52 674.19l-52.34 97.34 83.34-36.34-31-61z"/><path fill="#d66927" d="M535.74 579.42l-52.55 167.44 89.03 24.67-36.48-192.11z"/><path fill="#cc6328" d="M443.03 886.07l129.19-114.54-89.03-24.67-40.16 139.21z"/><path fill="#d66927" d="M572.22 771.53l237.8 114.54H443.03l129.19-114.54z"/><path fill="#f7941d" d="M535.74 579.42l-92.71 63.44v35.33l92.71-98.77z"/><path fill="#d66927" d="M735.18 771.53l74.84 114.54 8.5-150.88-83.34 36.34zm0 0L535.74 579.42l251.78 94.77-52.34 97.34zM443.03 574.19v-23.88l-43.4-3.22 43.4 27.1zm0 0v-23.88l43.4-3.22-43.4 27.1z"/><path fill="#fbad45" d="M443.03 114.19l-1.98 68-151.5 49 53-87 100.48-30z"/><path fill="#d66927" d="M443.03 114.19l1.99 68 151.5 49-53-87-100.49-30z"/><path fill="#fbad45" d="M313.85 426.39l89.03 119.35L351.02 509l-30.47-28.81-6.7-53.8z"/><path fill="#d66927" d="M572.22 426.39l-89.03 119.35L535.04 509l30.48-28.81 6.7-53.8z"/><path fill="#fbad45" d="M329.37 218.31L318.88 373.8l-19.6-64.39-9.73-78.22 39.82-12.88zm-47.85 108.17l4.87 64.76-13.63-17.44 8.76-47.32zM351.02 509l27.42 89.65-28.11-19.23.69-70.42z"/><path fill="#d66927" d="M458.29 632.42l77.45-53-.7-70.42-92.01 65.19 15.26 58.23z"/><path fill="#fdc07c" d="M342.55 144.19l-13.18 74.12-39.82 12.88 53-87z"/><path fill="#90979e" d="M0 0l237.91 598.65L0 486.07V0zm218.06 172.69L443.03 0H0l218.06 172.69z"/></svg>