<svg xmlns="http://www.w3.org/2000/svg" viewBox="0 0 31.19 34.36"><title>Vector Smart Object1</title><path d="M1278.12,541.37c-1.79,0-1.79-1.24-1.79-1.88,0-7.36-2.23-13.6-6.68-15.91-.44-2.28-2.08-5.15-4-5.15s-3.6,2.87-4,5.15c-4.45,2.32-6.68,8.56-6.68,15.91,0,.63,0,1.88-1.79,1.88H1251v4.17h29.19v-4.17Z" transform="translate(-1250.01 -517.43)" fill="none" stroke="#6d6e71" stroke-linecap="round" stroke-miterlimit="10" stroke-width="2"/><path d="M1265.6,551.8a4.17,4.17,0,0,0,4.17-4.17h-8.34A4.17,4.17,0,0,0,1265.6,551.8Z" transform="translate(-1250.01 -517.43)" fill="#6d6e71"/><circle cx="8.92" cy="22.01" r="1.3" fill="#6d6e71"/><path d="M1259.65,535.16s.27-4.75,3.22-7.7" transform="translate(-1250.01 -517.43)" fill="none" stroke="#6d6e71" stroke-linecap="round" stroke-miterlimit="10" stroke-width="2"/></svg>