<svg xmlns="http://www.w3.org/2000/svg" viewBox="0 0 9.57 9.56"><title>Vector Smart Object2</title><path d="M-418,1527.64a6.54,6.54,0,0,1-.44,2.52,6.71,6.71,0,0,1-1.49,2.11q-.47.47-1.14,1l-.12,2.22a.21.21,0,0,1-.09.15l-2.25,1.31-.09,0a.21.21,0,0,1-.13-.05l-.37-.37a.19.19,0,0,1,0-.19l.5-1.62-1.65-1.65-1.62.5H-427a.18.18,0,0,1-.13-.05l-.37-.37a.18.18,0,0,1,0-.23l1.31-2.25a.21.21,0,0,1,.15-.09l2.22-.12q.56-.67,1-1.14a6.83,6.83,0,0,1,2.1-1.51,6.6,6.6,0,0,1,2.53-.42.2.2,0,0,1,.14.06A.18.18,0,0,1-418,1527.64Zm-1.48,2.09a.54.54,0,0,0,.16-.4.54.54,0,0,0-.16-.4.54.54,0,0,0-.4-.16.54.54,0,0,0-.4.16.54.54,0,0,0-.16.4.54.54,0,0,0,.16.4.54.54,0,0,0,.4.16A.54.54,0,0,0-419.48,1529.73Z" transform="translate(427.57 -1527.46)"/></svg>