<svg xmlns="http://www.w3.org/2000/svg" viewBox="0 0 12.04 9.19"><title>Vector Smart Object2</title><circle cx="6.04" cy="5.02" r="1.86"/><path d="M319.52,620.11H318.2c-.53,0-1.4-.71-1.81-1.08a1,1,0,0,0-.16-.15l-.07-.07v0a1,1,0,0,0-.52-.17h-2.29a1,1,0,0,0-.55.19v0s-1.34,1.29-2,1.29h-1.25a1,1,0,0,0-1,1v5.73a1,1,0,0,0,1,1h10a1,1,0,0,0,1-1v-5.73A1,1,0,0,0,319.52,620.11Zm-5,6.43a2.85,2.85,0,1,1,2.85-2.85A2.85,2.85,0,0,1,314.53,626.54Zm4.6-4.53a.6.6,0,1,1,.6-.6A.6.6,0,0,1,319.13,622Z" transform="translate(-308.5 -618.67)"/></svg>