<svg xmlns="http://www.w3.org/2000/svg" viewBox="0 0 23.42 15.07"><title>Vector Smart Object</title><path d="M345.58,607.66a6.28,6.28,0,0,0-4.41-5.17c-3.8-1.44-6.59,1.46-7.37,2.4a3.82,3.82,0,0,0-2.71.49,4.18,4.18,0,0,0-1.82,2.16,4.63,4.63,0,0,0-4.12,4.71,4.83,4.83,0,0,0,1.28,3.62,6,6,0,0,0,4.26,1.3l1,0,.68,0a.5.5,0,0,0,0-1l-.72,0c-1.43.05-3.4.12-4.54-1a3.88,3.88,0,0,1-1-2.9,3.74,3.74,0,0,1,3.54-3.75l.37,0,.08-.36a3.09,3.09,0,0,1,1.45-1.86,2.73,2.73,0,0,1,2.21-.32l.37.14.23-.32c.11-.15,2.67-3.74,6.41-2.32s3.79,4.48,3.78,4.61v.43l.42.07c.1,0,2.56.47,2.56,3.84s-3.33,3.79-5.31,3.79a.5.5,0,0,0,0,1c1.9,0,6.31-.47,6.31-4.79C348.58,609,346.47,608,345.58,607.66Z" transform="translate(-325.16 -602.1)"/><path d="M337.42,607.8l-4,3.82a.5.5,0,0,0,.69.72l2.8-2.67v7a.5.5,0,0,0,1,0v-7l2.69,2.65a.5.5,0,0,0,.7-.71Z" transform="translate(-325.16 -602.1)"/></svg>