<svg xmlns="http://www.w3.org/2000/svg" viewBox="0 0 12.21 8.03"><title>Vector Smart Object</title><path d="M318.1,610.87a3.42,3.42,0,0,0-2.34-2.63,3.5,3.5,0,0,0-3.88,1.16,2.16,2.16,0,0,0-1.38.3,2.34,2.34,0,0,0-1,1.07,2.54,2.54,0,0,0-2.13,2.58,2.65,2.65,0,0,0,.72,2,3.74,3.74,0,0,0,2.82.71h.33a.5.5,0,1,0,0-1h-.37a3,3,0,0,1-2.09-.43,1.69,1.69,0,0,1-.41-1.27,1.61,1.61,0,0,1,1.54-1.63l.37,0,.08-.36a1.31,1.31,0,0,1,.61-.77,1.13,1.13,0,0,1,.89-.14l.37.14.23-.32s1.21-1.72,2.91-1.07a2.37,2.37,0,0,1,1.73,2.06v.42l.41.08c.11,0,1.08.25,1.08,1.67s-1.31,1.64-2.4,1.64a.5.5,0,1,0,0,1c2.13,0,3.4-1,3.4-2.64A2.57,2.57,0,0,0,318.1,610.87Z" transform="translate(-307.42 -608.03)"/><path d="M315.91,612.87l-2.12-2.08-2.17,2.08a.5.5,0,1,0,.69.72l1-.93v2.91a.5.5,0,0,0,1,0v-2.89l.92.9a.5.5,0,1,0,.7-.71Z" transform="translate(-307.42 -608.03)"/></svg>