<svg xmlns="http://www.w3.org/2000/svg" viewBox="0 0 9 2"><title>Vector Smart Object2</title><path d="M899.5,5034a.5.5,0,0,1-.5.5h0a.5.5,0,0,1-.5-.5h0a.5.5,0,0,1,.5-.5h0a.5.5,0,0,1,.5.5Z" transform="translate(-891 -5033)" fill="none" stroke="#000" stroke-linejoin="round"/><path d="M896,5034a.5.5,0,0,1-.5.5h0a.5.5,0,0,1-.5-.5h0a.5.5,0,0,1,.5-.5h0a.5.5,0,0,1,.5.5Z" transform="translate(-891 -5033)" fill="none" stroke="#000" stroke-linejoin="round"/><path d="M892.5,5034a.5.5,0,0,1-.5.5h0a.5.5,0,0,1-.5-.5h0a.5.5,0,0,1,.5-.5h0a.5.5,0,0,1,.5.5Z" transform="translate(-891 -5033)" fill="none" stroke="#000" stroke-linejoin="round"/></svg>