<svg xmlns="http://www.w3.org/2000/svg" viewBox="0 0 10.5 7.97"><title>Vector Smart Object1</title><path d="M304.64,643.16a6.2,6.2,0,0,0-1.51-1.68L302,642.6a2.66,2.66,0,0,1-3.45,3.45l-.65.65a5.57,5.57,0,0,0,1.6.24,5.7,5.7,0,0,0,2.93-.81,6.22,6.22,0,0,0,2.21-2.16.76.76,0,0,0,0-.81Z" transform="translate(-294.25 -639.62)" fill="#fff"/><path d="M297.92,645.69h0l3.74-3.74v0l.88-.88h0l.83-.83a.35.35,0,0,0-.5-.5l-1,1a5.6,5.6,0,0,0-2.35-.52,5.69,5.69,0,0,0-2.93.81,6.26,6.26,0,0,0-2.21,2.16.76.76,0,0,0,0,.81,6.25,6.25,0,0,0,2.13,2.1l-.91.91a.35.35,0,0,0,.5.5l1.07-1.07h0Zm-1.08-2.14a2.68,2.68,0,0,1,2.68-2.68,2.63,2.63,0,0,1,1.62.57l-3.73,3.73A2.63,2.63,0,0,1,296.84,643.55Z" transform="translate(-294.25 -639.62)" fill="#fff"/></svg>