<svg version="1.1" id="Layer_1" xmlns="http://www.w3.org/2000/svg" xmlns:xlink="http://www.w3.org/1999/xlink" x="0px" y="0px"
   viewBox="0 0 8.8 5.9" enable-background="new 0 0 8.8 5.9" xml:space="preserve">
<path fill="#333333" d="M8.7,2.5c0.1,0.1,0.1,0.3,0.1,0.4c0,0.1,0,0.3-0.1,0.4C8.5,3.7,8.2,4.1,7.9,4.4C7.5,4.7,7.2,5,6.8,5.2
  C6.5,5.4,6.1,5.6,5.7,5.7C5.3,5.8,4.8,5.9,4.4,5.9C4,5.9,3.6,5.8,3.2,5.7C2.8,5.6,2.4,5.4,2,5.2C1.6,5,1.3,4.7,1,4.4
  C0.6,4.1,0.4,3.7,0.1,3.3C0,3.2,0,3.1,0,2.9s0-0.3,0.1-0.4C0.4,2.1,0.7,1.8,1,1.5c0.3-0.3,0.7-0.6,1-0.8c0.4-0.2,0.8-0.4,1.2-0.5
  S4,0,4.4,0c0.4,0,0.8,0.1,1.3,0.2c0.4,0.1,0.8,0.3,1.2,0.5c0.4,0.2,0.7,0.5,1,0.8C8.2,1.8,8.5,2.1,8.7,2.5z M4.4,5.1
  c0.4,0,0.7-0.1,1.1-0.2c0.3-0.1,0.7-0.3,1-0.4c0.3-0.2,0.6-0.4,0.9-0.7c0.3-0.3,0.5-0.6,0.7-0.9C7.8,2.5,7.5,2.2,7.2,1.9
  C6.8,1.5,6.5,1.3,6.1,1.1c0.2,0.2,0.3,0.4,0.4,0.6C6.5,2,6.6,2.2,6.6,2.5c0,0.3-0.1,0.6-0.2,0.9C6.3,3.6,6.1,3.9,5.9,4.1
  C5.7,4.3,5.5,4.4,5.2,4.5C5,4.7,4.7,4.7,4.4,4.7c-0.3,0-0.6-0.1-0.9-0.2C3.2,4.4,3,4.3,2.8,4.1C2.6,3.9,2.5,3.6,2.3,3.4
  C2.2,3.1,2.2,2.8,2.2,2.5c0-0.2,0-0.5,0.1-0.7c0.1-0.2,0.2-0.4,0.3-0.6c-0.4,0.2-0.7,0.4-1,0.7C1.3,2.2,1,2.6,0.7,2.9
  c0.2,0.3,0.4,0.6,0.7,0.9C1.7,4.1,2,4.4,2.3,4.5C2.6,4.7,3,4.9,3.3,5C3.7,5.1,4,5.1,4.4,5.1z M4.4,1.1c-0.2,0-0.4,0-0.6,0.1
  C3.6,1.3,3.5,1.4,3.4,1.5C3.2,1.6,3.1,1.8,3.1,2C3,2.1,2.9,2.3,2.9,2.5c0,0.1,0,0.1,0.1,0.2c0.1,0.1,0.1,0.1,0.2,0.1
  c0.1,0,0.1,0,0.2-0.1c0.1-0.1,0.1-0.1,0.1-0.2c0-0.2,0.1-0.5,0.3-0.6c0.2-0.2,0.4-0.3,0.6-0.3c0.1,0,0.1,0,0.2-0.1
  c0.1-0.1,0.1-0.1,0.1-0.2c0-0.1,0-0.1-0.1-0.2C4.5,1.1,4.5,1.1,4.4,1.1z"/>
</svg>
