<svg xmlns="http://www.w3.org/2000/svg" viewBox="0 0 8.83 7.36"><title>Vector Smart Object</title><path d="M181,128.71a.15.15,0,0,1-.11.09h-.05l-.09,0-.65-.36a.18.18,0,0,1-.09-.11.18.18,0,0,1,0-.14l.32-.55a5.33,5.33,0,0,1-1.29-.85,5.75,5.75,0,0,1-1-1.24.67.67,0,0,1-.12-.39.72.72,0,0,1,.12-.4,5.94,5.94,0,0,1,.85-1.08,5.24,5.24,0,0,1,1-.8,4.88,4.88,0,0,1,1.16-.5,4.6,4.6,0,0,1,1.25-.17,3.76,3.76,0,0,1,.5,0l.49.08.43-.76a.17.17,0,0,1,.11-.09.15.15,0,0,1,.14,0l.64.36a.2.2,0,0,1,.09.11.15.15,0,0,1,0,.14Zm0-2.23a2.27,2.27,0,0,1-.66-.76,2.12,2.12,0,0,1-.25-1,2.07,2.07,0,0,1,.12-.71,2.55,2.55,0,0,1,.33-.62,4.83,4.83,0,0,0-1,.73,4.77,4.77,0,0,0-.84,1,5.13,5.13,0,0,0,.92,1.1,4.45,4.45,0,0,0,1.15.75Zm-.14-1.79a.27.27,0,0,0,.28.27.26.26,0,0,0,.2-.08.27.27,0,0,0,.08-.19.87.87,0,0,1,.88-.88.26.26,0,0,0,.2-.08.28.28,0,0,0,.08-.19.26.26,0,0,0-.08-.2.28.28,0,0,0-.2-.08,1.44,1.44,0,0,0-1,.42,1.49,1.49,0,0,0-.3.46A1.39,1.39,0,0,0,180.87,124.69Zm5.78,0a.75.75,0,0,1,.11.4.76.76,0,0,1-.11.39,5.59,5.59,0,0,1-1.88,1.88,4.68,4.68,0,0,1-2.4.67l.42-.76a4,4,0,0,0,1.83-.69,5,5,0,0,0,1.4-1.48,5,5,0,0,0-1.26-1.36l.36-.66a5.74,5.74,0,0,1,.82.72A5.83,5.83,0,0,1,186.65,124.73Zm-2.14,0a2.18,2.18,0,0,1-.1.67,2.13,2.13,0,0,1-.29.58,2.28,2.28,0,0,1-.45.47,2.17,2.17,0,0,1-.56.33l1.36-2.44c0,.06,0,.13,0,.19A2,2,0,0,1,184.51,124.69Z" transform="translate(-177.93 -121.45)" fill="#333"/></svg>