<svg xmlns="http://www.w3.org/2000/svg" viewBox="0 0 67.07 39.18"><title>Vector Smart Object</title><path d="M932.89,1581.23c-.22-.28-.45-.55-.68-.8a56.54,56.54,0,0,0-17.8-13.14,32.58,32.58,0,0,0-27.37-.44,55,55,0,0,0-18.89,13.7c-1.91,2.07-1.92,4.09,0,6.19a57.74,57.74,0,0,0,15.71,12.2,39,39,0,0,0,6.55,2.77,33.69,33.69,0,0,0,9.95,1.52h0c.8,0,1.6,0,2.45-.09a34.79,34.79,0,0,0,4.65-.74c9.27-2.32,17.57-7.63,25.37-16.24a3.74,3.74,0,0,0,.08-4.93m-2.31,2.92c-7.39,8.15-15.2,13.17-23.88,15.34a32.41,32.41,0,0,1-4.2.67,30.58,30.58,0,0,1-11.23-1.3,35.79,35.79,0,0,1-6-2.56,54.76,54.76,0,0,1-14.9-11.57c-.86-.95-.86-1.21,0-2.14a52,52,0,0,1,17.87-13,29.46,29.46,0,0,1,24.94.4A53.57,53.57,0,0,1,930,1582.47c.18.2.35.39.51.6.32.41.34.77.06,1.07" transform="translate(-866.71 -1564.05)" fill="#3bd1bb"/><path d="M900.1,1572.5a11.38,11.38,0,1,0,11.37,11.38,11.39,11.39,0,0,0-11.37-11.37m0,19.75a8.38,8.38,0,1,1,8.37-8.37,8.38,8.38,0,0,1-8.37,8.38" transform="translate(-866.71 -1564.05)" fill="#3bd1bb"/></svg>