<svg xmlns="http://www.w3.org/2000/svg" viewBox="0 0 10.5 6.75"><title>Vector Smart Object</title><path d="M330.16,643.77a6.26,6.26,0,0,0-2.21-2.16,5.67,5.67,0,0,0-5.85,0,6.26,6.26,0,0,0-2.21,2.16.76.76,0,0,0,0,.81,6.26,6.26,0,0,0,2.21,2.16,5.67,5.67,0,0,0,5.85,0,6.22,6.22,0,0,0,2.21-2.16.76.76,0,0,0,0-.81ZM325,646.84a2.68,2.68,0,1,1,2.68-2.68A2.68,2.68,0,0,1,325,646.84Z" transform="translate(-319.78 -640.8)" fill="#fff"/><path d="M323.94,644.54a.35.35,0,0,1-.35-.32,1.58,1.58,0,0,1,.36-1.15,1.56,1.56,0,0,1,1.21-.47.35.35,0,1,1,0,.71.75.75,0,0,0-.87.83.35.35,0,0,1-.32.39Z" transform="translate(-319.78 -640.8)" fill="#fff"/></svg>