<svg xmlns="http://www.w3.org/2000/svg" viewBox="0 0 9 9"><title>Vector Smart Object3</title><path d="M-710.33,202.93v5.62a1.63,1.63,0,0,1-.5,1.19,1.63,1.63,0,0,1-1.19.5h-5.62a1.63,1.63,0,0,1-1.19-.5,1.63,1.63,0,0,1-.5-1.19v-5.62a1.63,1.63,0,0,1,.5-1.19,1.63,1.63,0,0,1,1.19-.5H-712a1.63,1.63,0,0,1,1.19.5A1.63,1.63,0,0,1-710.33,202.93Zm-1.34,2.94.13-1.28h-1.16V204a.66.66,0,0,1,.09-.4q.09-.11.42-.11h.64v-1.28h-1a1.66,1.66,0,0,0-1.28.42,1.79,1.79,0,0,0-.39,1.25v.77H-715v1.28h.77v3.72h1.54v-3.72Z" transform="translate(719.33 -201.25)"/></svg>