<svg xmlns="http://www.w3.org/2000/svg" viewBox="0 0 51.02 36.51"><title>Vector Smart Object1</title><path d="M1323.2,470a8.15,8.15,0,1,1,0,16.29" transform="translate(-1306.98 -457.58)" fill="none" stroke="#6d6e71" stroke-linecap="round" stroke-miterlimit="10" stroke-width="2"/><circle cx="15.91" cy="20.57" r="4.01" fill="none" stroke="#6d6e71" stroke-linecap="round" stroke-miterlimit="10" stroke-width="2"/><circle cx="1314.02" cy="473.09" r="0.24" transform="translate(-1095.34 872.95) rotate(-57.68)" fill="#fff" stroke="#6d6e71" stroke-linecap="round" stroke-miterlimit="10" stroke-width="2"/><path d="M1335.71,475.93h-.28a1.06,1.06,0,0,1-1-.8l0-.06a1.05,1.05,0,0,1,.47-1.21l.24-.14a2.08,2.08,0,0,0,.76-2.84l-.17-.29a2.08,2.08,0,0,0-2.84-.76l-.24.14a1.05,1.05,0,0,1-1.28-.19l0,0a1.05,1.05,0,0,1-.19-1.28l.14-.24a2.08,2.08,0,0,0-.76-2.84l-.29-.17a2.08,2.08,0,0,0-2.84.76l-.14.24a1.05,1.05,0,0,1-1.21.47l-.06,0a1.06,1.06,0,0,1-.8-1v-.28a2.08,2.08,0,0,0-2.08-2.08h-.34a2.08,2.08,0,0,0-2.08,2.08v.28a1.06,1.06,0,0,1-.8,1l-.06,0a1.05,1.05,0,0,1-1.21-.47l-.14-.24a2.08,2.08,0,0,0-2.84-.76l-.29.17a2.08,2.08,0,0,0-.76,2.84l.14.24a1.05,1.05,0,0,1-.19,1.28l0,0a1.05,1.05,0,0,1-1.28.19l-.24-.14a2.08,2.08,0,0,0-2.84.76l-.17.29a2.08,2.08,0,0,0,.76,2.84l.24.14a1.05,1.05,0,0,1,.47,1.21l0,.06a1.06,1.06,0,0,1-1,.8h-.28A2.08,2.08,0,0,0,1308,478v.34a2.08,2.08,0,0,0,2.08,2.08h.28a1.06,1.06,0,0,1,1,.8l0,.06a1.05,1.05,0,0,1-.47,1.21l-.24.14a2.08,2.08,0,0,0-.76,2.84l.17.29a2.08,2.08,0,0,0,2.84.76l.24-.14a1.05,1.05,0,0,1,1.28.19l0,0a1.05,1.05,0,0,1,.19,1.28l-.14.24a2.08,2.08,0,0,0,.76,2.84l.29.17a2.08,2.08,0,0,0,2.84-.76l.14-.24a1.05,1.05,0,0,1,1.21-.47l.06,0a1.06,1.06,0,0,1,.8,1V491a2.08,2.08,0,0,0,2.08,2.08h.34a2.08,2.08,0,0,0,2.08-2.08v-.28a1.06,1.06,0,0,1,.8-1l.06,0a1.05,1.05,0,0,1,1.21.47l.14.24a2.08,2.08,0,0,0,2.84.76l.29-.17a2.08,2.08,0,0,0,.76-2.84l-.14-.24a1.05,1.05,0,0,1,.19-1.28l0,0a1.05,1.05,0,0,1,1.28-.19l.24.14a2.08,2.08,0,0,0,2.84-.76l.17-.29a2.08,2.08,0,0,0-.76-2.84l-.24-.14a1.05,1.05,0,0,1-.47-1.21l0-.06a1.06,1.06,0,0,1,1-.8h.28a2.08,2.08,0,0,0,2.08-2.08V478A2.08,2.08,0,0,0,1335.71,475.93Z" transform="translate(-1306.98 -457.58)" fill="none" stroke="#6d6e71" stroke-linecap="round" stroke-miterlimit="10" stroke-width="2"/><circle cx="39.61" cy="11.38" r="4.01" fill="none" stroke="#6d6e71" stroke-linecap="round" stroke-miterlimit="10" stroke-width="2"/><path d="M1355.54,467.41h-.19a.74.74,0,0,1-.7-.56v0a.74.74,0,0,1,.33-.84l.17-.1a1.45,1.45,0,0,0,.53-2l-.12-.2a1.45,1.45,0,0,0-2-.53l-.17.1a.74.74,0,0,1-.89-.13l0,0a.74.74,0,0,1-.13-.89l.1-.17a1.45,1.45,0,0,0-.53-2l-.2-.12a1.45,1.45,0,0,0-2,.53l-.1.17a.74.74,0,0,1-.84.33h0a.74.74,0,0,1-.56-.7V460a1.45,1.45,0,0,0-1.45-1.45h-.24A1.45,1.45,0,0,0,1345,460v.19a.74.74,0,0,1-.56.7h0a.74.74,0,0,1-.84-.33l-.1-.17a1.45,1.45,0,0,0-2-.53l-.2.12a1.45,1.45,0,0,0-.53,2l.1.17a.74.74,0,0,1-.13.89l0,0a.74.74,0,0,1-.89.13l-.17-.1a1.45,1.45,0,0,0-2,.53l-.12.2a1.45,1.45,0,0,0,.53,2l.17.1a.74.74,0,0,1,.33.84v0a.74.74,0,0,1-.7.56h-.19a1.45,1.45,0,0,0-1.45,1.45v.24a1.45,1.45,0,0,0,1.45,1.45h.19a.74.74,0,0,1,.7.56v0a.74.74,0,0,1-.33.84l-.17.1a1.45,1.45,0,0,0-.53,2l.12.2a1.45,1.45,0,0,0,2,.53l.17-.1a.74.74,0,0,1,.89.13l0,0a.74.74,0,0,1,.13.89l-.1.17a1.45,1.45,0,0,0,.53,2l.2.12a1.45,1.45,0,0,0,2-.53l.1-.17a.74.74,0,0,1,.84-.33h0a.74.74,0,0,1,.56.7v.19a1.45,1.45,0,0,0,1.45,1.45h.24a1.45,1.45,0,0,0,1.45-1.45v-.19a.74.74,0,0,1,.56-.7h0a.74.74,0,0,1,.84.33l.1.17a1.45,1.45,0,0,0,2,.53l.2-.12a1.45,1.45,0,0,0,.53-2l-.1-.17a.74.74,0,0,1,.13-.89l0,0a.74.74,0,0,1,.89-.13l.17.1a1.45,1.45,0,0,0,2-.53l.12-.2a1.45,1.45,0,0,0-.53-2l-.17-.1a.74.74,0,0,1-.33-.84v0a.74.74,0,0,1,.7-.56h.19a1.45,1.45,0,0,0,1.45-1.45v-.24A1.45,1.45,0,0,0,1355.54,467.41Z" transform="translate(-1306.98 -457.58)" fill="none" stroke="#6d6e71" stroke-linecap="round" stroke-miterlimit="10" stroke-width="2"/></svg>