<svg xmlns="http://www.w3.org/2000/svg" viewBox="0 0 14 16"><title>Vector Smart Object2</title><path d="M1325,144.83c-.86,0-.86-.6-.86-.9,0-3.53-1.07-6.52-3.2-7.63-.21-1.09-1-2.47-1.94-2.47s-1.73,1.38-1.94,2.47c-2.13,1.11-3.2,4.1-3.2,7.63,0,.3,0,.9-.86.9h-1v2h14v-2Z" transform="translate(-1311.96 -133.83)"/><path d="M1319,149.83a2,2,0,0,0,2-2h-4A2,2,0,0,0,1319,149.83Z" transform="translate(-1311.96 -133.83)"/><path d="M1320.68,146.83a2,2,0,0,0-3.45,0Z" transform="translate(-1311.96 -133.83)"/></svg>