<svg xmlns="http://www.w3.org/2000/svg" viewBox="0 0 33.92 30.53"><title>Vector Smart Object5</title><path d="M1087.54,470.63v8.69h0l-8.7-8.7h-15.66a2.92,2.92,0,0,1-2.92-2.92v-14a2.92,2.92,0,0,1,2.92-2.92h26.07a2.92,2.92,0,0,1,2.92,2.92v14a2.92,2.92,0,0,1-2.92,2.92h-1.7Z" transform="translate(-1059.25 -449.79)" fill="none" stroke="#6d6e71" stroke-miterlimit="10" stroke-width="2"/><path d="M1072.68,458.68l2.78,4.82a.86.86,0,0,0,1.49,0l2.78-4.82a.86.86,0,0,0-.74-1.29h-5.56A.86.86,0,0,0,1072.68,458.68Z" transform="translate(-1059.25 -449.79)" fill="none" stroke="#6d6e71" stroke-miterlimit="10" stroke-width="2"/><line x1="4.5" y1="8.87" x2="4.5" y2="16.12" fill="none" stroke="#6d6e71" stroke-linecap="round" stroke-miterlimit="10" stroke-width="2"/><line x1="4.5" y1="4.45" x2="4.5" y2="5.19" fill="none" stroke="#6d6e71" stroke-linecap="round" stroke-miterlimit="10" stroke-width="2"/></svg>