<svg xmlns="http://www.w3.org/2000/svg" viewBox="0 0 24.03 25.5"><title>Vector Smart Object3</title><path d="M1193.18,490h10.52a.85.85,0,0,0,.85-.85v-2.82c0-.7-4-2.73-7.55-4.19a.85.85,0,0,1-.53-.79v-1.92a.81.81,0,0,1,.27-.62c.37-.31,1-1.11,1.07-3a.82.82,0,0,1,.36-.61,2.09,2.09,0,0,0,.2-2.59.88.88,0,0,1-.28-1,4.7,4.7,0,0,0,.37-2.92c-.73-2.94-8-2.94-8.71,0-2.34-.48-1.5,1.62-1,2.86a.85.85,0,0,1-.27,1c-.84.66-.64,2.74.59,2.74,0,2.25.74,3.16,1.17,3.49a.81.81,0,0,1,.3.65v1.9a.85.85,0,0,1-.53.79c-3.55,1.46-7.55,3.49-7.55,4.19v2.82a.85.85,0,0,0,.85.85Z" transform="translate(-1181.51 -465.53)" fill="none" stroke="#6d6e71" stroke-linecap="round" stroke-miterlimit="10" stroke-width="2"/></svg>