<svg xmlns="http://www.w3.org/2000/svg" viewBox="0 0 58.87 47.68"><title>Vector Smart Object2</title><path d="M1281.12,512.55c.09.11.9.77,1,.85a32.43,32.43,0,0,0,41.4.13,14,14,0,0,0,1.28-1.07l-.72-3.53a21.64,21.64,0,0,0-11-14.82,12.94,12.94,0,1,0-20.38,0A21.63,21.63,0,0,0,1281.8,509S1281.21,511.76,1281.12,512.55Zm21.79-36.31a9.94,9.94,0,1,1-9.94,9.94A9.95,9.95,0,0,1,1302.91,476.24Zm0,41.68a29.35,29.35,0,0,1-18.43-6.49,18.94,18.94,0,0,1,10.46-15.09,12.86,12.86,0,0,0,16,0,18.75,18.75,0,0,1,10.52,15A29.36,29.36,0,0,1,1302.91,517.93Z" transform="translate(-1281.12 -473.24)" fill="#3bd1bb"/><path d="M1339,500.55a13,13,0,0,0-6.62-8.94,7.8,7.8,0,1,0-12.29,0,13.86,13.86,0,0,0-3,2.22q.68.61,1.33,1.26a12.08,12.08,0,0,1,3-2.15,7.75,7.75,0,0,0,9.63,0,11.3,11.3,0,0,1,6.34,9.07,17.7,17.7,0,0,1-11.16,4H1326q.41.88.77,1.79a19.5,19.5,0,0,0,11.88-4.44,8.4,8.4,0,0,0,.77-.65Zm-12.77-7.72a6,6,0,1,1,6-6A6,6,0,0,1,1326.24,492.83Z" transform="translate(-1281.12 -473.24)" fill="#3bd1bb" stroke="#3bd1bb" stroke-miterlimit="10"/></svg>