<svg xmlns="http://www.w3.org/2000/svg" viewBox="0 0 13.51 12.41"><title>Vector Smart Object4</title><path d="M1243.93,171a1.42,1.42,0,0,1,1.25,1.25v4a1.42,1.42,0,0,1-1.25,1.25h-5.31l-.22.22-1.72,1.72v-1.19l0-.75h-.75a1.37,1.37,0,0,1-1.21-1.25v-4a1.42,1.42,0,0,1,1.25-1.25h8m0-.75h-8a2.15,2.15,0,0,0-2,2v4a2.12,2.12,0,0,0,2,2h0v3l3-3h5a2.15,2.15,0,0,0,2-2v-4a2.15,2.15,0,0,0-2-2Zm-8,8h0Zm0,0h0Z" transform="translate(-1233.93 -170.29)"/><path d="M1236.89,182.32l2.94-2.92h4.83a2.58,2.58,0,0,0,2.39-2.71v-4" transform="translate(-1233.93 -170.29)" fill="none" stroke="#000" stroke-linecap="round" stroke-miterlimit="10" stroke-width="0.75"/></svg>