<?xml version="1.0" encoding="utf-8"?>
<!-- Generator: Adobe Illustrator 22.0.1, SVG Export Plug-In . SVG Version: 6.00 Build 0)  -->
<svg version="1.1" id="Layer_1" xmlns="http://www.w3.org/2000/svg" xmlns:xlink="http://www.w3.org/1999/xlink" x="0px" y="0px"
	 viewBox="0 0 86 86" style="enable-background:new 0 0 86 86;" xml:space="preserve">
<style type="text/css">
	.st0{fill:#FFFFFF;}
</style>
<path class="st0" d="M43,1.1C19.9,1.1,1.1,19.9,1.1,43S19.8,84.9,43,84.9S84.9,66.1,84.9,43S66.1,1.1,43,1.1z M24.5,49.5h-2.9V36.8
	h2.9V49.5z M43.3,74.6L26.7,54.5h5l11.6,14.1l11.6-14.1h5L43.3,74.6z M26.1,49.5l4.7-12.7h3.4L39,49.5h-3.2l-0.9-2.8h-4.8l-0.9,2.8
	H26.1z M48.7,41.9v-5.1h2.9v12.7h-2.9v-5.1h-5.5v5.1h-2.9V36.8h2.9v5.1C43.2,41.9,48.7,41.9,48.7,41.9z M65.7,47.7
	c-0.1,0.1-1.6,1.8-4.6,2.1v2.3h-1.7v-2.4c-3.6-0.4-6-3.2-6-6.8c0-3.7,2.5-6.4,6-6.8v-2.3h1.7v2.3c2.8,0.2,4.2,1.8,4.2,1.9l0.1,0.1
	l-1.4,2l0-0.2c0,0-1.4-1.4-3.4-1.4c-2.5,0-4.3,1.9-4.3,4.4c0,2.6,1.8,4.5,4.4,4.5c2.3,0,3.8-1.7,3.8-1.7l0.2-0.2L65.7,47.7
	L65.7,47.7z M72.5,36h-5l2.9-3.5l-9.2-7.9H25.4l-9.2,7.9L19,36h-5l-3.3-4l13.1-11.2h38.7L75.6,32L72.5,36z"/>
<path class="st0" d="M32.8,40.1c-0.1-0.4-0.2-0.7-0.3-1.1h-0.1c0,0.3-0.1,0.7-0.3,1.1l-1.4,4.3h3.7L32.8,40.1z"/>
</svg>
