<?xml version="1.0" encoding="utf-8"?>
<!-- Generator: Adobe Illustrator 21.1.0, SVG Export Plug-In . SVG Version: 6.00 Build 0)  -->
<svg version="1.1" id="Layer_1" xmlns="http://www.w3.org/2000/svg" xmlns:xlink="http://www.w3.org/1999/xlink" x="0px" y="0px"
	 viewBox="0 0 86 86" style="enable-background:new 0 0 86 86;" xml:space="preserve">
<g>
	<path d="M46.4,6.7c0-0.2,0.1-0.3,0.2-0.4c0.1-0.1,0.2-0.1,0.3-0.1c0.1,0,0.3,0.1,0.3,0.2c0.1,0.1,0.1,0.2,0.1,0.4
		c0,0.2-0.1,0.3-0.2,0.4c-0.1,0.1-0.2,0.1-0.4,0.1c-0.1,0-0.2-0.1-0.3-0.2S46.3,6.9,46.4,6.7z"/>
	<path d="M49.8,7.2c0-0.2,0.1-0.3,0.2-0.4c0.1-0.1,0.2-0.1,0.4-0.1c0.1,0,0.3,0.1,0.3,0.2s0.1,0.2,0,0.4c0,0.2-0.1,0.3-0.2,0.4
		c-0.1,0.1-0.2,0.1-0.4,0.1c-0.1,0-0.2-0.1-0.3-0.2C49.8,7.5,49.7,7.3,49.8,7.2z"/>
	<path d="M53.1,8c0-0.2,0.1-0.3,0.2-0.3s0.2-0.1,0.4,0c0.1,0,0.2,0.1,0.3,0.2s0.1,0.2,0,0.4c0,0.2-0.1,0.3-0.2,0.3
		c-0.1,0.1-0.2,0.1-0.4,0c-0.1,0-0.2-0.1-0.3-0.2S53,8.1,53.1,8z"/>
	<path d="M56.4,9.1c0.1-0.2,0.2-0.3,0.3-0.3c0.1-0.1,0.2-0.1,0.4,0c0.1,0.1,0.2,0.1,0.3,0.3c0,0.1,0,0.3,0,0.4
		c-0.1,0.2-0.2,0.3-0.3,0.3c-0.1,0.1-0.2,0-0.4,0c-0.1,0-0.2-0.1-0.3-0.2C56.3,9.4,56.3,9.2,56.4,9.1z"/>
	<path d="M59.5,10.5c0.1-0.2,0.2-0.2,0.3-0.3c0.1,0,0.2,0,0.4,0c0.1,0.1,0.2,0.2,0.2,0.3c0,0.1,0,0.3-0.1,0.4
		c-0.1,0.1-0.2,0.2-0.3,0.3c-0.1,0-0.2,0-0.4,0c-0.1-0.1-0.2-0.1-0.2-0.3C59.4,10.8,59.4,10.6,59.5,10.5z"/>
	<path d="M62.5,12.2c0.1-0.1,0.2-0.2,0.3-0.3c0.1,0,0.2,0,0.4,0.1c0.1,0.1,0.2,0.2,0.2,0.3c0,0.1,0,0.3-0.1,0.4
		c-0.1,0.1-0.2,0.2-0.3,0.3s-0.2,0-0.4-0.1c-0.1-0.1-0.2-0.2-0.2-0.3C62.3,12.4,62.4,12.3,62.5,12.2z"/>
	<path d="M65.3,14.1c0.1-0.1,0.2-0.2,0.3-0.2c0.1,0,0.2,0,0.3,0.1c0.1,0.1,0.2,0.2,0.2,0.3c0,0.1,0,0.2-0.1,0.4
		c-0.1,0.1-0.2,0.2-0.3,0.2c-0.1,0-0.2,0-0.4-0.1c-0.1-0.1-0.2-0.2-0.2-0.3S65.2,14.3,65.3,14.1z"/>
	<path d="M67.9,16.4c0.1-0.1,0.2-0.2,0.4-0.2s0.2,0,0.3,0.1c0.1,0.1,0.2,0.2,0.2,0.3s-0.1,0.2-0.2,0.4c-0.1,0.1-0.2,0.2-0.4,0.2
		c-0.1,0-0.2,0-0.3-0.1c-0.1-0.1-0.1-0.2-0.2-0.3C67.7,16.6,67.8,16.5,67.9,16.4z"/>
	<path d="M70.3,18.8c0.1-0.1,0.3-0.2,0.4-0.2c0.1,0,0.2,0.1,0.3,0.2c0.1,0.1,0.1,0.2,0.1,0.4c0,0.1-0.1,0.2-0.2,0.4
		c-0.1,0.1-0.3,0.2-0.4,0.2c-0.1,0-0.2-0.1-0.3-0.2c-0.1-0.1-0.1-0.2-0.1-0.3S70.2,18.9,70.3,18.8z"/>
	<path d="M72.5,21.5c0.1-0.1,0.3-0.1,0.4-0.1c0.1,0,0.2,0.1,0.3,0.2c0.1,0.1,0.1,0.2,0.1,0.4c0,0.1-0.1,0.2-0.2,0.3
		c-0.1,0.1-0.3,0.1-0.4,0.1c-0.1,0-0.2-0.1-0.3-0.2c-0.1-0.1-0.1-0.2-0.1-0.3C72.2,21.7,72.3,21.6,72.5,21.5z"/>
	<path d="M74.4,24.3c0.1-0.1,0.3-0.1,0.4-0.1s0.2,0.1,0.3,0.2c0.1,0.1,0.1,0.3,0.1,0.4c0,0.1-0.1,0.2-0.3,0.3
		c-0.1,0.1-0.3,0.1-0.4,0.1c-0.1,0-0.2-0.1-0.3-0.2c-0.1-0.1-0.1-0.2-0.1-0.3C74.1,24.5,74.2,24.4,74.4,24.3z"/>
	<path d="M76,27.3c0.2-0.1,0.3-0.1,0.4-0.1c0.1,0,0.2,0.1,0.3,0.2c0.1,0.1,0.1,0.3,0,0.4c0,0.1-0.1,0.2-0.3,0.3
		c-0.2,0.1-0.3,0.1-0.4,0c-0.1,0-0.2-0.1-0.3-0.3c-0.1-0.1-0.1-0.2,0-0.3C75.7,27.5,75.8,27.4,76,27.3z"/>
	<path d="M77.3,30.5c0.2-0.1,0.3-0.1,0.4,0c0.1,0,0.2,0.1,0.2,0.3c0,0.1,0,0.3,0,0.4s-0.2,0.2-0.3,0.2c-0.2,0.1-0.3,0.1-0.4,0
		c-0.1,0-0.2-0.1-0.2-0.3c0-0.1,0-0.2,0-0.3S77.2,30.6,77.3,30.5z"/>
	<path d="M78.4,33.8c0.2,0,0.3,0,0.4,0s0.2,0.2,0.2,0.3c0,0.1,0,0.3,0,0.4c-0.1,0.1-0.2,0.2-0.3,0.2c-0.2,0-0.3,0-0.4,0
		c-0.1-0.1-0.2-0.2-0.2-0.3c0-0.1,0-0.2,0-0.3C78.1,33.9,78.2,33.8,78.4,33.8z"/>
	<path d="M79.1,37.1c0.2,0,0.3,0,0.4,0.1s0.2,0.2,0.2,0.3c0,0.1,0,0.3-0.1,0.4s-0.2,0.2-0.4,0.2c-0.2,0-0.3,0-0.4-0.1
		c-0.1-0.1-0.2-0.2-0.2-0.3c0-0.1,0-0.2,0.1-0.3C78.8,37.2,78.9,37.2,79.1,37.1z"/>
	<path d="M79.5,40.5c0.2,0,0.3,0,0.4,0.1C80,40.7,80,40.8,80,41c0,0.1,0,0.3-0.1,0.4c-0.1,0.1-0.2,0.1-0.4,0.1c-0.2,0-0.3,0-0.4-0.1
		C79,41.3,79,41.2,79,41c0-0.1,0-0.2,0.1-0.3C79.1,40.6,79.3,40.5,79.5,40.5z"/>
	<path d="M79.5,44c0.2,0,0.3,0.1,0.4,0.1c0.1,0.1,0.1,0.2,0.1,0.3c0,0.1-0.1,0.3-0.1,0.3s-0.2,0.1-0.4,0.1c-0.2,0-0.3-0.1-0.4-0.1
		S79,44.6,79,44.4c0-0.1,0-0.2,0.1-0.3S79.4,44,79.5,44z"/>
	<path d="M79.3,47.4c0.2,0,0.3,0.1,0.4,0.2c0.1,0.1,0.1,0.2,0.1,0.4c0,0.1-0.1,0.3-0.2,0.3s-0.2,0.1-0.4,0.1c-0.2,0-0.3-0.1-0.4-0.2
		c-0.1-0.1-0.1-0.2-0.1-0.4c0-0.1,0.1-0.2,0.2-0.3S79.1,47.4,79.3,47.4z"/>
	<path d="M78.7,50.8c0.2,0,0.3,0.1,0.4,0.2c0.1,0.1,0.1,0.2,0.1,0.4c0,0.1-0.1,0.2-0.2,0.3c-0.1,0.1-0.2,0.1-0.4,0
		c-0.2,0-0.3-0.1-0.3-0.2c-0.1-0.1-0.1-0.2-0.1-0.4c0-0.1,0.1-0.2,0.2-0.3C78.4,50.8,78.6,50.8,78.7,50.8z"/>
	<path d="M77.9,54.1c0.2,0.1,0.3,0.1,0.3,0.2s0.1,0.2,0,0.4c0,0.1-0.1,0.2-0.2,0.3c-0.1,0.1-0.2,0.1-0.4,0c-0.2-0.1-0.3-0.1-0.3-0.2
		c-0.1-0.1-0.1-0.2,0-0.4c0-0.1,0.1-0.2,0.2-0.3C77.5,54,77.7,54,77.9,54.1z"/>
	<path d="M76.7,57.3c0.2,0.1,0.3,0.2,0.3,0.3s0,0.2,0,0.4c-0.1,0.1-0.1,0.2-0.3,0.3s-0.3,0-0.4,0C76.1,58.1,76,58,76,57.9
		c0-0.1,0-0.2,0-0.4c0.1-0.1,0.1-0.2,0.2-0.2C76.4,57.2,76.5,57.2,76.7,57.3z"/>
	<path d="M75.2,60.4c0.2,0.1,0.2,0.2,0.3,0.3c0,0.1,0,0.2,0,0.4c-0.1,0.1-0.2,0.2-0.3,0.2s-0.3,0-0.4-0.1c-0.1-0.1-0.2-0.2-0.3-0.3
		c0-0.1,0-0.2,0.1-0.4c0.1-0.1,0.2-0.2,0.3-0.2C74.9,60.3,75,60.3,75.2,60.4z"/>
	<path d="M73.4,63.4c0.1,0.1,0.2,0.2,0.3,0.3c0,0.1,0,0.2-0.1,0.4c-0.1,0.1-0.2,0.2-0.3,0.2c-0.1,0-0.3,0-0.4-0.1
		c-0.1-0.1-0.2-0.2-0.2-0.3c0-0.1,0-0.2,0.1-0.4c0.1-0.1,0.2-0.2,0.3-0.2C73.1,63.2,73.3,63.3,73.4,63.4z"/>
	<path d="M71.4,66.1c0.1,0.1,0.2,0.2,0.2,0.3c0,0.1,0,0.2-0.1,0.3c-0.1,0.1-0.2,0.2-0.3,0.2c-0.1,0-0.2,0-0.4-0.2
		c-0.1-0.1-0.2-0.2-0.2-0.3s0-0.2,0.1-0.4C70.8,66,70.9,66,71,66C71.1,66,71.2,66,71.4,66.1z"/>
	<path d="M69.1,68.7c0.1,0.1,0.2,0.2,0.2,0.4s0,0.2-0.1,0.3c-0.1,0.1-0.2,0.2-0.3,0.2c-0.1,0-0.2-0.1-0.4-0.2
		c-0.1-0.1-0.2-0.2-0.2-0.4c0-0.1,0-0.2,0.2-0.3c0.1-0.1,0.2-0.1,0.3-0.1S69,68.6,69.1,68.7z"/>
	<path d="M66.6,71c0.1,0.1,0.2,0.3,0.2,0.4c0,0.1-0.1,0.2-0.2,0.3c-0.1,0.1-0.2,0.1-0.4,0.1c-0.1,0-0.2-0.1-0.3-0.2
		c-0.1-0.1-0.2-0.3-0.1-0.4c0-0.1,0.1-0.2,0.2-0.3c0.1-0.1,0.2-0.1,0.3-0.1S66.4,70.9,66.6,71z"/>
	<path d="M63.8,73.1c0.1,0.1,0.1,0.3,0.1,0.4c0,0.1-0.1,0.2-0.2,0.3c-0.1,0.1-0.2,0.1-0.4,0.1c-0.1,0-0.2-0.1-0.3-0.3
		c-0.1-0.1-0.1-0.3-0.1-0.4c0-0.1,0.1-0.2,0.2-0.3c0.1-0.1,0.2-0.1,0.3-0.1C63.6,72.9,63.7,73,63.8,73.1z"/>
	<path d="M61,74.9c0.1,0.2,0.1,0.3,0.1,0.4s-0.1,0.2-0.2,0.3c-0.1,0.1-0.3,0.1-0.4,0.1c-0.1,0-0.2-0.1-0.3-0.3
		c-0.1-0.1-0.1-0.3-0.1-0.4c0-0.1,0.1-0.2,0.2-0.3c0.1-0.1,0.2-0.1,0.3,0S60.9,74.8,61,74.9z"/>
	<path d="M57.9,76.5c0.1,0.2,0.1,0.3,0,0.4c0,0.1-0.1,0.2-0.3,0.3c-0.1,0.1-0.3,0.1-0.4,0c-0.1,0-0.2-0.2-0.3-0.3
		c-0.1-0.2-0.1-0.3,0-0.4c0-0.1,0.1-0.2,0.3-0.3c0.1-0.1,0.2-0.1,0.3,0C57.7,76.2,57.8,76.3,57.9,76.5z"/>
	<path d="M54.7,77.7c0.1,0.2,0.1,0.3,0,0.4c0,0.1-0.1,0.2-0.3,0.2c-0.1,0-0.3,0-0.4,0c-0.1-0.1-0.2-0.2-0.2-0.3
		c-0.1-0.2-0.1-0.3,0-0.4c0.1-0.1,0.1-0.2,0.3-0.2c0.1,0,0.2,0,0.3,0C54.5,77.4,54.6,77.6,54.7,77.7z"/>
	<path d="M51.4,78.7c0,0.2,0,0.3,0,0.4c-0.1,0.1-0.2,0.2-0.3,0.2c-0.1,0-0.3,0-0.4-0.1c-0.1-0.1-0.2-0.2-0.2-0.4c0-0.2,0-0.3,0-0.4
		s0.2-0.2,0.3-0.2c0.1,0,0.2,0,0.3,0S51.3,78.5,51.4,78.7z"/>
	<path d="M48,79.3c0,0.2,0,0.3-0.1,0.4s-0.2,0.2-0.3,0.2c-0.1,0-0.3,0-0.4-0.1s-0.2-0.2-0.2-0.4c0-0.2,0-0.3,0.1-0.4
		c0.1-0.1,0.2-0.2,0.3-0.2c0.1,0,0.2,0,0.3,0.1C47.9,79,48,79.1,48,79.3z"/>
	<path d="M44.6,79.6c0,0.2,0,0.3-0.1,0.4c-0.1,0.1-0.2,0.1-0.3,0.1c-0.1,0-0.3,0-0.4-0.1c-0.1-0.1-0.1-0.2-0.1-0.4
		c0-0.2,0-0.3,0.1-0.4c0.1-0.1,0.2-0.1,0.3-0.1c0.1,0,0.2,0,0.3,0.1C44.5,79.3,44.6,79.4,44.6,79.6z"/>
	<path d="M41.1,79.6c0,0.2-0.1,0.3-0.1,0.4c-0.1,0.1-0.2,0.1-0.3,0.1c-0.1,0-0.3-0.1-0.3-0.2c-0.1-0.1-0.1-0.2-0.1-0.4
		c0-0.2,0.1-0.3,0.2-0.4c0.1-0.1,0.2-0.1,0.4-0.1c0.1,0,0.2,0.1,0.3,0.1S41.2,79.4,41.1,79.6z"/>
	<path d="M37.7,79.3c0,0.2-0.1,0.3-0.2,0.4c-0.1,0.1-0.2,0.1-0.4,0.1c-0.1,0-0.3-0.1-0.3-0.2c-0.1-0.1-0.1-0.2-0.1-0.4
		c0-0.2,0.1-0.3,0.2-0.4c0.1-0.1,0.2-0.1,0.4-0.1c0.1,0,0.2,0.1,0.3,0.2C37.7,78.9,37.8,79.1,37.7,79.3z"/>
	<path d="M34.4,78.6c0,0.2-0.1,0.3-0.2,0.4s-0.2,0.1-0.4,0c-0.1,0-0.2-0.1-0.3-0.2c-0.1-0.1-0.1-0.2,0-0.4c0-0.2,0.1-0.3,0.2-0.3
		c0.1-0.1,0.2-0.1,0.4,0c0.1,0,0.2,0.1,0.3,0.2S34.4,78.4,34.4,78.6z"/>
	<path d="M31.1,77.7c-0.1,0.2-0.1,0.3-0.2,0.3s-0.2,0.1-0.4,0c-0.1,0-0.2-0.1-0.3-0.2c0-0.1,0-0.2,0-0.4c0.1-0.2,0.1-0.3,0.3-0.3
		c0.1-0.1,0.2-0.1,0.4,0c0.1,0,0.2,0.1,0.3,0.2C31.2,77.3,31.1,77.5,31.1,77.7z"/>
	<path d="M27.9,76.4c-0.1,0.2-0.2,0.3-0.3,0.3c-0.1,0-0.2,0-0.4,0c-0.1-0.1-0.2-0.2-0.3-0.3c0-0.1,0-0.3,0.1-0.4
		c0.1-0.2,0.2-0.2,0.3-0.3c0.1,0,0.2,0,0.4,0c0.1,0.1,0.2,0.1,0.2,0.2C28,76.1,28,76.2,27.9,76.4z"/>
	<path d="M24.8,74.8c-0.1,0.1-0.2,0.2-0.3,0.3c-0.1,0-0.2,0-0.4-0.1C24,75,24,74.9,23.9,74.7s0-0.3,0.1-0.4c0.1-0.1,0.2-0.2,0.3-0.3
		s0.2,0,0.4,0.1c0.1,0.1,0.2,0.2,0.2,0.3C25,74.5,24.9,74.6,24.8,74.8z"/>
	<path d="M21.9,73c-0.1,0.1-0.2,0.2-0.3,0.2c-0.1,0-0.2,0-0.4-0.1c-0.1-0.1-0.2-0.2-0.2-0.3s0-0.3,0.1-0.4c0.1-0.1,0.2-0.2,0.3-0.2
		c0.1,0,0.2,0,0.4,0.1c0.1,0.1,0.2,0.2,0.2,0.3S22,72.8,21.9,73z"/>
	<path d="M19.2,70.9c-0.1,0.1-0.2,0.2-0.3,0.2c-0.1,0-0.2,0-0.3-0.1c-0.1-0.1-0.2-0.2-0.2-0.3c0-0.1,0.1-0.2,0.2-0.4
		c0.1-0.1,0.2-0.2,0.4-0.2s0.2,0,0.3,0.1c0.1,0.1,0.2,0.2,0.2,0.3C19.4,70.6,19.3,70.7,19.2,70.9z"/>
	<path d="M16.7,68.5c-0.1,0.1-0.2,0.2-0.4,0.2c-0.1,0-0.2,0-0.3-0.2c-0.1-0.1-0.2-0.2-0.1-0.3c0-0.1,0.1-0.2,0.2-0.4
		c0.1-0.1,0.2-0.2,0.4-0.2s0.2,0.1,0.3,0.2c0.1,0.1,0.1,0.2,0.1,0.3C16.9,68.3,16.9,68.4,16.7,68.5z"/>
	<path d="M14.5,65.9c-0.1,0.1-0.3,0.2-0.4,0.1c-0.1,0-0.2-0.1-0.3-0.2c-0.1-0.1-0.1-0.2-0.1-0.4c0-0.1,0.1-0.2,0.2-0.3
		c0.1-0.1,0.3-0.1,0.4-0.1c0.1,0,0.2,0.1,0.3,0.2c0.1,0.1,0.1,0.2,0.1,0.3C14.7,65.7,14.6,65.8,14.5,65.9z"/>
	<path d="M12.4,63.2c-0.1,0.1-0.3,0.1-0.4,0.1c-0.1,0-0.2-0.1-0.3-0.2c-0.1-0.1-0.1-0.2-0.1-0.4c0-0.1,0.1-0.2,0.3-0.3
		c0.1-0.1,0.3-0.1,0.4-0.1c0.1,0,0.2,0.1,0.3,0.2c0.1,0.1,0.1,0.2,0.1,0.3C12.7,62.9,12.6,63.1,12.4,63.2z"/>
	<path d="M10.7,60.2c-0.2,0.1-0.3,0.1-0.4,0.1c-0.1,0-0.2-0.1-0.3-0.2c-0.1-0.1-0.1-0.3,0-0.4s0.1-0.2,0.3-0.3
		c0.1-0.1,0.3-0.1,0.4-0.1c0.1,0,0.2,0.1,0.3,0.2c0.1,0.1,0.1,0.2,0,0.3C11,60,10.9,60.1,10.7,60.2z"/>
	<path d="M9.2,57.1c-0.2,0.1-0.3,0.1-0.4,0c-0.1,0-0.2-0.1-0.2-0.3c-0.1-0.1-0.1-0.3,0-0.4c0.1-0.1,0.2-0.2,0.3-0.3
		c0.2-0.1,0.3-0.1,0.4,0c0.1,0,0.2,0.1,0.3,0.3c0,0.1,0.1,0.2,0,0.3C9.5,56.9,9.4,57,9.2,57.1z"/>
	<path d="M8.1,53.9c-0.2,0-0.3,0-0.4,0c-0.1,0-0.2-0.1-0.2-0.3c0-0.1,0-0.3,0-0.4C7.5,53.1,7.6,53,7.8,53c0.2,0,0.3,0,0.4,0
		c0.1,0.1,0.2,0.2,0.2,0.3c0,0.1,0,0.2,0,0.3C8.4,53.7,8.2,53.8,8.1,53.9z"/>
	<path d="M7.2,50.5c-0.2,0-0.3,0-0.4,0c-0.1-0.1-0.2-0.2-0.2-0.3c0-0.1,0-0.3,0.1-0.4c0.1-0.1,0.2-0.2,0.4-0.2c0.2,0,0.3,0,0.4,0.1
		c0.1,0.1,0.2,0.2,0.2,0.3c0,0.1,0,0.2-0.1,0.3C7.5,50.4,7.4,50.5,7.2,50.5z"/>
	<path d="M6.7,47.1c-0.2,0-0.3,0-0.4-0.1c-0.1-0.1-0.2-0.2-0.2-0.3c0-0.1,0-0.3,0.1-0.4c0.1-0.1,0.2-0.1,0.4-0.2
		c0.2,0,0.3,0,0.4,0.1c0.1,0.1,0.2,0.2,0.2,0.3c0,0.1,0,0.2-0.1,0.3S6.9,47.1,6.7,47.1z"/>
	<path d="M6.5,43.7c-0.2,0-0.3,0-0.4-0.1s-0.1-0.2-0.1-0.3c0-0.1,0-0.3,0.1-0.4c0.1-0.1,0.2-0.1,0.4-0.1c0.2,0,0.3,0,0.4,0.1
		C6.9,43,7,43.1,7,43.3c0,0.1,0,0.2-0.1,0.3C6.8,43.7,6.6,43.7,6.5,43.7z"/>
	<path d="M6.6,40.3c-0.2,0-0.3-0.1-0.4-0.2c-0.1-0.1-0.1-0.2-0.1-0.3c0-0.1,0.1-0.3,0.2-0.3s0.2-0.1,0.4-0.1c0.2,0,0.3,0.1,0.4,0.2
		c0.1,0.1,0.1,0.2,0.1,0.4c0,0.1-0.1,0.2-0.2,0.3C6.9,40.3,6.7,40.3,6.6,40.3z"/>
	<path d="M7,36.9c-0.2,0-0.3-0.1-0.4-0.2s-0.1-0.2-0.1-0.4c0-0.1,0.1-0.3,0.2-0.3S7,35.9,7.1,36c0.2,0,0.3,0.1,0.4,0.2
		c0.1,0.1,0.1,0.2,0.1,0.4c0,0.1-0.1,0.2-0.2,0.3C7.3,36.9,7.2,36.9,7,36.9z"/>
	<path d="M7.7,33.5c-0.2,0-0.3-0.1-0.3-0.2c-0.1-0.1-0.1-0.2,0-0.4c0-0.1,0.1-0.2,0.2-0.3c0.1-0.1,0.2-0.1,0.4,0
		c0.2,0,0.3,0.1,0.3,0.2s0.1,0.2,0,0.4c0,0.1-0.1,0.2-0.2,0.3S7.9,33.6,7.7,33.5z"/>
	<path d="M8.8,30.3c-0.2-0.1-0.3-0.1-0.3-0.3c-0.1-0.1-0.1-0.2,0-0.4c0.1-0.1,0.1-0.2,0.3-0.3s0.2,0,0.4,0c0.2,0.1,0.3,0.1,0.3,0.3
		c0.1,0.1,0.1,0.2,0,0.4c0,0.1-0.1,0.2-0.2,0.3C9.1,30.4,8.9,30.3,8.8,30.3z"/>
	<path d="M10.1,27.1C10,27,9.9,26.9,9.8,26.8c0-0.1,0-0.2,0-0.4c0.1-0.1,0.2-0.2,0.3-0.3c0.1,0,0.3,0,0.4,0.1
		c0.1,0.1,0.2,0.2,0.3,0.3s0,0.2,0,0.4c-0.1,0.1-0.1,0.2-0.3,0.2C10.4,27.2,10.3,27.2,10.1,27.1z"/>
	<path d="M11.8,24.1c-0.1-0.1-0.2-0.2-0.3-0.3c0-0.1,0-0.2,0.1-0.4c0.1-0.1,0.2-0.2,0.3-0.2c0.1,0,0.3,0,0.4,0.1
		c0.1,0.1,0.2,0.2,0.3,0.3c0,0.1,0,0.2-0.1,0.4c-0.1,0.1-0.2,0.2-0.3,0.2C12.1,24.2,11.9,24.2,11.8,24.1z"/>
	<path d="M13.7,21.3c-0.1-0.1-0.2-0.2-0.2-0.3c0-0.1,0-0.2,0.1-0.3c0.1-0.1,0.2-0.2,0.3-0.2s0.2,0,0.4,0.1c0.1,0.1,0.2,0.2,0.2,0.3
		s0,0.2-0.1,0.4c-0.1,0.1-0.2,0.2-0.3,0.2C14,21.4,13.8,21.4,13.7,21.3z"/>
	<path d="M15.9,18.6c-0.1-0.1-0.2-0.2-0.2-0.4c0-0.1,0-0.2,0.1-0.3c0.1-0.1,0.2-0.2,0.3-0.2s0.2,0.1,0.4,0.2
		c0.1,0.1,0.2,0.2,0.2,0.4c0,0.1,0,0.2-0.1,0.3c-0.1,0.1-0.2,0.1-0.3,0.2C16.1,18.8,16,18.7,15.9,18.6z"/>
	<path d="M18.3,16.2c-0.1-0.1-0.2-0.3-0.2-0.4c0-0.1,0.1-0.2,0.2-0.3c0.1-0.1,0.2-0.1,0.3-0.1c0.1,0,0.2,0.1,0.4,0.2
		c0.1,0.1,0.2,0.2,0.2,0.4c0,0.1-0.1,0.2-0.2,0.3c-0.1,0.1-0.2,0.1-0.3,0.1C18.5,16.4,18.4,16.3,18.3,16.2z"/>
	<path d="M20.9,14c-0.1-0.1-0.1-0.3-0.1-0.4c0-0.1,0.1-0.2,0.2-0.3c0.1-0.1,0.2-0.1,0.4-0.1s0.2,0.1,0.3,0.2
		c0.1,0.1,0.1,0.3,0.1,0.4s-0.1,0.2-0.2,0.3c-0.1,0.1-0.2,0.1-0.3,0.1C21.1,14.2,21,14.1,20.9,14z"/>
	<path d="M23.7,12c-0.1-0.1-0.1-0.3-0.1-0.4s0.1-0.2,0.2-0.3c0.1-0.1,0.3-0.1,0.4-0.1c0.1,0,0.2,0.1,0.3,0.3
		c0.1,0.1,0.1,0.3,0.1,0.4c0,0.1-0.1,0.2-0.2,0.3c-0.1,0.1-0.2,0.1-0.3,0.1C23.9,12.3,23.8,12.2,23.7,12z"/>
	<path d="M26.7,10.3c-0.1-0.2-0.1-0.3-0.1-0.4s0.1-0.2,0.2-0.3c0.1-0.1,0.3-0.1,0.4,0c0.1,0,0.2,0.1,0.3,0.3
		c0.1,0.2,0.1,0.3,0.1,0.4c0,0.1-0.1,0.2-0.3,0.3c-0.1,0.1-0.2,0.1-0.3,0C26.9,10.6,26.8,10.5,26.7,10.3z"/>
	<path d="M29.9,9c-0.1-0.2-0.1-0.3,0-0.4c0-0.1,0.1-0.2,0.3-0.2c0.1-0.1,0.3-0.1,0.4,0c0.1,0.1,0.2,0.2,0.3,0.3
		c0.1,0.2,0.1,0.3,0,0.4c0,0.1-0.1,0.2-0.3,0.2c-0.1,0-0.2,0-0.3,0C30,9.2,30,9.1,29.9,9z"/>
	<path d="M33.1,7.9c0-0.2,0-0.3,0-0.4c0.1-0.1,0.2-0.2,0.3-0.2c0.1,0,0.3,0,0.4,0C33.9,7.4,34,7.5,34,7.6c0,0.2,0,0.3,0,0.4
		c-0.1,0.1-0.2,0.2-0.3,0.2c-0.1,0-0.2,0-0.3,0C33.3,8.2,33.2,8.1,33.1,7.9z"/>
	<path d="M36.5,7.1c0-0.2,0-0.3,0.1-0.4c0.1-0.1,0.2-0.2,0.3-0.2c0.1,0,0.3,0,0.4,0.1c0.1,0.1,0.2,0.2,0.2,0.4c0,0.2,0,0.3-0.1,0.4
		c-0.1,0.1-0.2,0.2-0.3,0.2c-0.1,0-0.2,0-0.3-0.1C36.6,7.4,36.5,7.3,36.5,7.1z"/>
	<path d="M39.9,6.7c0-0.2,0-0.3,0.1-0.4c0.1-0.1,0.2-0.1,0.3-0.2c0.1,0,0.3,0,0.4,0.1c0.1,0.1,0.1,0.2,0.2,0.4c0,0.2,0,0.3-0.1,0.4
		c-0.1,0.1-0.2,0.1-0.3,0.2c-0.1,0-0.2,0-0.3-0.1C40,7,39.9,6.9,39.9,6.7z"/>
	<path d="M43.3,6.5c0-0.2,0-0.3,0.1-0.4C43.5,6.1,43.7,6,43.8,6c0.1,0,0.3,0.1,0.3,0.1c0.1,0.1,0.1,0.2,0.1,0.4c0,0.2,0,0.3-0.1,0.4
		C44,7,43.9,7.1,43.8,7.1c-0.1,0-0.2,0-0.3-0.1C43.4,6.9,43.3,6.7,43.3,6.5z"/>
</g>
<g>
	<path d="M43,85.8C19.4,85.8,0.2,66.6,0.2,43C0.2,19.4,19.4,0.2,43,0.2S85.8,19.4,85.8,43C85.8,66.6,66.6,85.8,43,85.8z M43,0.7
		C19.7,0.7,0.7,19.7,0.7,43c0,23.3,19,42.3,42.3,42.3c23.3,0,42.3-19,42.3-42.3C85.3,19.7,66.3,0.7,43,0.7z"/>
</g>
<path d="M34.7,40.7c-0.1-0.3-0.2-0.6-0.2-0.9h0c0,0.2-0.1,0.6-0.2,0.9L33,44.2h3L34.7,40.7z"/>
<path d="M43,9C24.2,9,9,24.2,9,43c0,18.8,15.2,34,34,34c18.8,0,34-15.2,34-34C77,24.2,61.8,9,43,9z M27.9,48.3h-2.4V37.9h2.4V48.3z
	 M43.2,67.7L29.7,51.4h4l9.5,11.5l9.5-11.5h4L43.2,67.7z M29.2,48.3l3.8-10.3h2.8l3.9,10.3h-2.6L36.4,46h-3.9l-0.7,2.2H29.2z
	 M47.6,42.1v-4.2H50v10.3h-2.3v-4.2h-4.5v4.2h-2.3V37.9h2.3v4.2H47.6z M61.5,46.8c-0.1,0.1-1.3,1.5-3.7,1.7v0.9h-1.4v-0.9
	c-2.9-0.4-4.9-2.6-4.9-5.5s2-5.2,4.9-5.5v-0.9h1.4v0.9c2.3,0.2,3.4,1.5,3.5,1.5l0.1,0.1l-1.1,1.6l-0.1-0.1c0,0-1.1-1.2-2.8-1.2
	c-2,0-3.5,1.5-3.5,3.6c0,2.1,1.5,3.6,3.6,3.6c1.9,0,3.1-1.3,3.1-1.4l0.1-0.1L61.5,46.8L61.5,46.8z M67,37.3h-4l2.3-2.8l-7.5-6.4
	H28.6l-7.5,6.4l2.3,2.8h-4l-2.7-3.2L27.5,25h31.4l10.7,9.1L67,37.3z"/>
</svg>
