<svg xmlns="http://www.w3.org/2000/svg" viewBox="0 0 41.6 41.6"><title>Asset 7</title><path d="M21.21,9.94a10.82,10.82,0,0,1,0,21.64" fill="none" stroke="#6d6e71" stroke-linecap="round" stroke-miterlimit="10" stroke-width="2"/><circle cx="20.8" cy="20.76" r="5.33" fill="none" stroke="#6d6e71" stroke-linecap="round" stroke-miterlimit="10" stroke-width="2"/><circle cx="9.03" cy="14.04" r="0.31" transform="translate(-7.66 14.16) rotate(-57.68)" fill="#fff" stroke="#6d6e71" stroke-linecap="round" stroke-miterlimit="10" stroke-width="2"/><path d="M37.84,17.81h-.37a1.4,1.4,0,0,1-1.34-1.07l0-.09a1.4,1.4,0,0,1,.63-1.6l.32-.18a2.77,2.77,0,0,0,1-3.78l-.22-.39a2.77,2.77,0,0,0-3.78-1l-.32.19A1.4,1.4,0,0,1,32,9.62L32,9.56a1.4,1.4,0,0,1-.26-1.7l.19-.32a2.77,2.77,0,0,0-1-3.78l-.39-.22a2.77,2.77,0,0,0-3.78,1l-.18.32a1.4,1.4,0,0,1-1.6.63l-.09,0a1.4,1.4,0,0,1-1.07-1.34V3.77A2.77,2.77,0,0,0,21,1h-.45a2.77,2.77,0,0,0-2.77,2.77v.37a1.4,1.4,0,0,1-1.07,1.34l-.09,0a1.4,1.4,0,0,1-1.6-.63l-.18-.32a2.77,2.77,0,0,0-3.78-1l-.39.22a2.77,2.77,0,0,0-1,3.78l.19.32a1.4,1.4,0,0,1-.26,1.7l-.06.06a1.4,1.4,0,0,1-1.7.26l-.32-.19a2.77,2.77,0,0,0-3.78,1l-.22.39a2.77,2.77,0,0,0,1,3.78l.32.18a1.4,1.4,0,0,1,.63,1.6l0,.09a1.4,1.4,0,0,1-1.34,1.07H3.77A2.77,2.77,0,0,0,1,20.58V21a2.77,2.77,0,0,0,2.77,2.77h.37a1.4,1.4,0,0,1,1.34,1.07l0,.09a1.4,1.4,0,0,1-.63,1.6l-.32.18a2.77,2.77,0,0,0-1,3.78l.22.39a2.77,2.77,0,0,0,3.78,1l.32-.19a1.4,1.4,0,0,1,1.7.26l.06.06a1.4,1.4,0,0,1,.26,1.7l-.19.32a2.77,2.77,0,0,0,1,3.78l.39.22a2.77,2.77,0,0,0,3.78-1l.18-.32a1.4,1.4,0,0,1,1.6-.63l.09,0a1.4,1.4,0,0,1,1.07,1.34v.37a2.77,2.77,0,0,0,2.77,2.77H21a2.77,2.77,0,0,0,2.77-2.77v-.37a1.4,1.4,0,0,1,1.07-1.34l.09,0a1.4,1.4,0,0,1,1.6.63l.18.32a2.77,2.77,0,0,0,3.78,1l.39-.22a2.77,2.77,0,0,0,1-3.78l-.19-.32A1.4,1.4,0,0,1,32,32L32,32a1.4,1.4,0,0,1,1.7-.26l.32.19a2.77,2.77,0,0,0,3.78-1l.22-.39a2.77,2.77,0,0,0-1-3.78l-.32-.18a1.4,1.4,0,0,1-.63-1.6l0-.09a1.4,1.4,0,0,1,1.34-1.07h.37A2.77,2.77,0,0,0,40.6,21v-.45A2.77,2.77,0,0,0,37.84,17.81Z" fill="none" stroke="#6d6e71" stroke-linecap="round" stroke-miterlimit="10" stroke-width="2"/></svg>