<svg xmlns="http://www.w3.org/2000/svg" viewBox="0 0 33.92 30.53"><title>Asset 2</title><path d="M28.29,20.84v8.69h0l-8.7-8.7H3.92A2.92,2.92,0,0,1,1,17.91v-14A2.92,2.92,0,0,1,3.92,1H30a2.92,2.92,0,0,1,2.92,2.92v14A2.92,2.92,0,0,1,30,20.83h-1.7Z" fill="none" stroke="#6d6e71" stroke-miterlimit="10" stroke-width="2"/><path d="M13.43,8.88l2.78,4.82a.86.86,0,0,0,1.49,0l2.78-4.82a.86.86,0,0,0-.74-1.29H14.18A.86.86,0,0,0,13.43,8.88Z" fill="none" stroke="#6d6e71" stroke-miterlimit="10" stroke-width="2"/><line x1="4.5" y1="8.87" x2="4.5" y2="16.12" fill="none" stroke="#6d6e71" stroke-linecap="round" stroke-miterlimit="10" stroke-width="2"/><line x1="4.5" y1="4.45" x2="4.5" y2="5.19" fill="none" stroke="#6d6e71" stroke-linecap="round" stroke-miterlimit="10" stroke-width="2"/></svg>