<svg xmlns="http://www.w3.org/2000/svg" viewBox="0 0 5.15 7.36"><title>Vector Smart Object2</title><path d="M179.77,1351.41a.36.36,0,0,1,.11-.27.35.35,0,0,1,.26-.11h.73a.37.37,0,0,1,.37.37V1358a.35.35,0,0,1-.11.26.36.36,0,0,1-.27.11h-.73a.35.35,0,0,1-.26-.11.35.35,0,0,1-.11-.26Zm1.55,3.52,3.13,3.38a.25.25,0,0,0,.3.07.27.27,0,0,0,.17-.27v-6.76a.29.29,0,0,0-.17-.28l-.11,0a.23.23,0,0,0-.2.09l-3.13,3.38a.26.26,0,0,0-.08.21.32.32,0,0,0,.08.21Z" transform="translate(-179.77 -1351.03)" fill="#333"/></svg>