<svg xmlns="http://www.w3.org/2000/svg" viewBox="0 0 24.35 24.35"><title>pencil</title><path d="M13.45,4.37l6.69,6.69L6.76,24.42H.08V17.74Zm-7.54,18,1.46-1.46L3.6,17.13,2.13,18.59v1.72H4.19v2.06H5.91ZM14.2,7.73a.37.37,0,0,0,.11-.27A.31.31,0,0,0,14,7.1a.38.38,0,0,0-.27.11L5,15.92a.37.37,0,0,0-.11.27.31.31,0,0,0,.35.35.37.37,0,0,0,.27-.11L14.2,7.73Zm9.63-3.28a2.07,2.07,0,0,1,.59,1.46,2,2,0,0,1-.59,1.45L21.16,10,14.48,3.34,17.15.69A1.91,1.91,0,0,1,18.59.08a2,2,0,0,1,1.46.61l3.78,3.76Z" transform="translate(-0.08 -0.08)" fill="#010101"/></svg>