<?xml version="1.0" encoding="utf-8"?>
<!-- Generator: Adobe Illustrator 19.0.0, SVG Export Plug-In . SVG Version: 6.00 Build 0)  -->
<svg version="1.1" id="Layer_1" xmlns="http://www.w3.org/2000/svg" xmlns:xlink="http://www.w3.org/1999/xlink" x="0px" y="0px"
	 viewBox="0 0 58.9 59.1" enable-background="new 0 0 58.9 59.1" xml:space="preserve">
<path fill="#3BD1BB" d="M57.5,9.3l-7.9-7.9C48.6,0.5,47.4,0,46.1,0c-1.3,0-2.6,0.5-3.5,1.4l-5.3,5.3c-1-0.3-2.3-0.1-3,0.7L32,9.7
	c-0.9,0.9-1.1,2.3-0.6,3.4L6,38.5c-0.1,0.1-0.1,0.2-0.2,0.2c0,0,0,0,0,0c-0.1,0.1-0.1,0.2-0.1,0.3c0,0,0,0,0,0L1.1,52.8l-0.4,1.3
	l-0.6,1.7c0,0.1,0,0.1,0,0.2c-0.2,0.8,0,1.5,0.2,1.9c0.1,0.1,0.2,0.3,0.2,0.4c0.5,0.6,1.2,0.9,2,0.9h0c0.3,0,0.5,0,0.5,0
	c0,0,0,0,0,0c0,0,0,0,0,0c0.1,0,0.1,0,0.2-0.1l2.2-0.7L20,53.6c0,0,0,0,0,0c0.2-0.1,0.4-0.2,0.6-0.4l25.5-25.5
	c0.3,0.1,0.7,0.2,1.1,0.2c0.8,0,1.5-0.3,2.1-0.9l2.2-2.2c0.9-0.9,1.1-2.1,0.7-3.2l5.3-5.3C59.4,14.4,59.4,11.3,57.5,9.3 M19.6,50
	l-4.2-4.2l24.3-24.3l4.2,4.2L19.6,50z M33.4,15.3l4.2,4.2L13.3,43.7l-4.2-4.2L33.4,15.3z M6.3,54.9l-2-2l3.5-10.5l4.5,4.5l0,0l0,0
	l4.5,4.5L6.3,54.9z M47.6,24.4c0-0.1-0.1-0.2-0.1-0.2L34.9,11.7c-0.1-0.1-0.3-0.2-0.4-0.3l1.8-1.8l0.1,0.1c0,0,0,0,0,0l12.8,12.8
	c0,0,0.1,0.1,0.2,0.1l0.1,0.1L47.6,24.4z M55.3,14.2l-5.1,5.1L39.6,8.7l5.1-5.1c0.7-0.7,2-0.7,2.8,0l7.9,7.9
	C56.1,12.2,56.1,13.5,55.3,14.2"/>
</svg>
