<svg xmlns="http://www.w3.org/2000/svg" xmlns:xlink="http://www.w3.org/1999/xlink" viewBox="0 0 15.57 15.96"><path d="M15.26,12.17c-.47-.73-2-1.18-3.59-1.83a18.15,18.15,0,0,1-1.92-.87V8a2.8,2.8,0,0,0,.76-1.85c.36.11.75-.54.77-.88S11.21,4,10.77,4.09a9.22,9.22,0,0,0,.12-1.63A3,3,0,0,0,7.78,0,3,3,0,0,0,4.68,2.46,9.16,9.16,0,0,0,4.8,4.09c-.44-.09-.51.82-.49,1.15s.4,1,.77.88A2.79,2.79,0,0,0,5.84,8V9.47a18.15,18.15,0,0,1-1.92.87C2.35,11,.78,11.44.31,12.17S0,16,0,16H5.88l1.69-3,1.69,3h6.29S15.68,12.82,15.26,12.17ZM7.57,13l-1-1,1-1,1,1Z"/></svg>
