<svg xmlns="http://www.w3.org/2000/svg" viewBox="0 0 11.25 9"><title>Vector Smart Object4</title><path d="M412,414.63v7.13a.94.94,0,0,1-.94.94h-9.37a.94.94,0,0,1-.94-.94v-7.12a.94.94,0,0,1,.94-.94h9.38a.94.94,0,0,1,.94.94Zm-.94-.19h-9.37a.18.18,0,0,0-.13.05.18.18,0,0,0-.06.13v7.13a.18.18,0,0,0,.06.13.18.18,0,0,0,.13.06h9.38a.18.18,0,0,0,.13-.06.18.18,0,0,0,.06-.13v-7.12a.18.18,0,0,0-.06-.13A.18.18,0,0,0,411.06,414.44Zm-6.89,1.08a1.13,1.13,0,1,1-.8-.33A1.09,1.09,0,0,1,404.17,415.52Zm6.33,3v2.63h-8.25v-1.12l1.88-1.87.94.94,3-3Z" transform="translate(-400.75 -413.69)"/></svg>