<svg xmlns="http://www.w3.org/2000/svg" viewBox="0 0 9 9"><title>Vector Smart Object5</title><path d="M-852.24,202.27a1.62,1.62,0,0,1,1.19.49,1.63,1.63,0,0,1,.5,1.19v5.62a1.62,1.62,0,0,1-.5,1.19,1.63,1.63,0,0,1-1.19.5h-4.25a4.09,4.09,0,0,0,.63-1.23l.31-1.22a1,1,0,0,0,.43.39,1.38,1.38,0,0,0,.66.16,2.1,2.1,0,0,0,1.73-.87,3.46,3.46,0,0,0,.67-2.19,2.32,2.32,0,0,0-.21-1,2.64,2.64,0,0,0-.57-.81,2.68,2.68,0,0,0-.89-.57,3.07,3.07,0,0,0-1.15-.21,3.77,3.77,0,0,0-1.14.17,2.88,2.88,0,0,0-.9.45,3.15,3.15,0,0,0-.63.64,2.65,2.65,0,0,0-.39.75,2.52,2.52,0,0,0-.13.78,2.3,2.3,0,0,0,.23,1.05,1.31,1.31,0,0,0,.68.64.17.17,0,0,0,.14,0,.16.16,0,0,0,.09-.11q.06-.26.09-.36a.25.25,0,0,0-.06-.25,1.36,1.36,0,0,1-.29-.88,2.08,2.08,0,0,1,.61-1.5,2.11,2.11,0,0,1,1.58-.62,1.87,1.87,0,0,1,1.36.47,1.64,1.64,0,0,1,.49,1.23,3.32,3.32,0,0,1-.4,1.68,1.16,1.16,0,0,1-1,.69.71.71,0,0,1-.57-.26.65.65,0,0,1-.13-.61c0-.13.08-.31.16-.54s.13-.43.17-.6a1.82,1.82,0,0,0,.06-.44.73.73,0,0,0-.16-.48.54.54,0,0,0-.44-.19.74.74,0,0,0-.61.33,1.32,1.32,0,0,0-.25.82,1.6,1.6,0,0,0,.14.71l-.57,2.43a4.44,4.44,0,0,0,0,1.49h-1.07a1.63,1.63,0,0,1-1.19-.5,1.62,1.62,0,0,1-.5-1.19V204a1.63,1.63,0,0,1,.5-1.19,1.62,1.62,0,0,1,1.19-.49Z" transform="translate(859.56 -202.27)"/></svg>