<?xml version="1.0" encoding="utf-8"?>
<!-- Generator: Adobe Illustrator 19.0.0, SVG Export Plug-In . SVG Version: 6.00 Build 0)  -->
<svg version="1.1" id="Layer_1" xmlns="http://www.w3.org/2000/svg" xmlns:xlink="http://www.w3.org/1999/xlink" x="0px" y="0px"
	 viewBox="0 0 62 62" enable-background="new 0 0 62 62" xml:space="preserve">
<path fill="#3BD1BB" d="M31,0C13.9,0,0,13.9,0,31c0,17.1,13.9,31,31,31c17.1,0,31-13.9,31-31C62,13.9,48.1,0,31,0 M31,59
	C15.6,59,3,46.4,3,31C3,15.6,15.6,3,31,3c15.4,0,28,12.6,28,28C59,46.4,46.4,59,31,59"/>
<path fill="#3BD1BB" d="M43.2,29.9H32.5V19.3c0-0.8-0.7-1.5-1.5-1.5c-0.8,0-1.5,0.7-1.5,1.5v10.7H18.9c-0.8,0-1.5,0.7-1.5,1.5
	c0,0.8,0.7,1.5,1.5,1.5h10.7v10.7c0,0.8,0.7,1.5,1.5,1.5c0.8,0,1.5-0.7,1.5-1.5V32.9h10.7c0.8,0,1.5-0.7,1.5-1.5
	C44.7,30.6,44,29.9,43.2,29.9"/>
</svg>
