<svg xmlns="http://www.w3.org/2000/svg" viewBox="0 0 12.15 18.23"><title>Vector Smart Object</title><path d="M-81.3,305.79l-4.33-9.19a1.37,1.37,0,0,0-.55-.62,1.52,1.52,0,0,0-.8-.23,1.52,1.52,0,0,0-.8.23,1.44,1.44,0,0,0-.56.62l-4.32,9.19a5,5,0,0,0-.39,2.12,5.86,5.86,0,0,0,1.78,4.3A5.86,5.86,0,0,0-87,314a5.86,5.86,0,0,0,4.3-1.78,5.86,5.86,0,0,0,1.78-4.3A5,5,0,0,0-81.3,305.79Zm-7.63,4.3a.5.5,0,0,1-.5.5.5.5,0,0,1-.5-.5v-4.92a.5.5,0,0,1,.5-.5.5.5,0,0,1,.5.5Zm2.44,0a.5.5,0,0,1-.5.5.5.5,0,0,1-.5-.5v-4.92a.5.5,0,0,1,.5-.5.5.5,0,0,1,.5.5Zm2.5,0a.5.5,0,0,1-.5.5.5.5,0,0,1-.5-.5v-4.92a.5.5,0,0,1,.5-.5.5.5,0,0,1,.5.5Z" transform="translate(93.07 -295.76)"/></svg>