<svg xmlns="http://www.w3.org/2000/svg" viewBox="0 0 7.35 7.36"><title>Vector Smart Object1</title><path d="M332.82,538.61a.43.43,0,0,1,0,.64l-.48.49a.44.44,0,0,1-.33.14.43.43,0,0,1-.32-.14l-2.41-2.42-2.42,2.42a.43.43,0,0,1-.64,0l-.48-.48a.45.45,0,0,1,0-.65l2.43-2.44-2.43-2.39a.44.44,0,0,1,0-.65l.48-.48a.44.44,0,0,1,.33-.14.43.43,0,0,1,.32.14l2.41,2.41,2.41-2.41a.44.44,0,0,1,.65,0l.48.48a.45.45,0,0,1,.14.33.43.43,0,0,1-.14.32l-2.43,2.44,2.43,2.39Z" transform="translate(-325.61 -532.51)" fill="#333"/></svg>