<svg xmlns="http://www.w3.org/2000/svg" viewBox="0 0 9.23 7.5"><title>Vector Smart Object</title><path d="M-873.54,222.37a3.77,3.77,0,0,0,1.09-.29,4,4,0,0,1-.95,1q0,.08,0,.25a5.37,5.37,0,0,1-.22,1.52,5.5,5.5,0,0,1-.68,1.46,5.72,5.72,0,0,1-1.08,1.23,4.81,4.81,0,0,1-1.51.86,5.53,5.53,0,0,1-1.89.32,5.26,5.26,0,0,1-2.91-.85l.46,0a3.71,3.71,0,0,0,2.35-.81,1.85,1.85,0,0,1-1.1-.38,1.85,1.85,0,0,1-.67-.93l.36,0a2,2,0,0,0,.5-.06,1.86,1.86,0,0,1-1.09-.65,1.83,1.83,0,0,1-.43-1.2v0a1.88,1.88,0,0,0,.86.24,1.89,1.89,0,0,1-.62-.67,1.84,1.84,0,0,1-.23-.9,1.85,1.85,0,0,1,.26-1,5.36,5.36,0,0,0,1.73,1.4,5.27,5.27,0,0,0,2.18.58,2.1,2.1,0,0,1,0-.43,1.83,1.83,0,0,1,.55-1.34,1.82,1.82,0,0,1,1.34-.55,1.82,1.82,0,0,1,1.38.6,3.71,3.71,0,0,0,1.2-.46,1.84,1.84,0,0,1-.83,1Z" transform="translate(881.68 -221.18)"/></svg>