<svg xmlns="http://www.w3.org/2000/svg" viewBox="0 0 33.56 33.58"><title>Vector Smart Object1</title><line x1="17.78" y1="20.58" x2="17.78" y2="16.51" fill="none" stroke="#6d6e71" stroke-linecap="round" stroke-miterlimit="10" stroke-width="2"/><path d="M1193.18,416.67v3.82l-7,2.5a4.2,4.2,0,0,0-2.78,4v3.34h14.68" transform="translate(-1182.39 -399.92)" fill="none" stroke="#6d6e71" stroke-linecap="round" stroke-miterlimit="10" stroke-width="2"/><ellipse cx="14.11" cy="9.39" rx="6.99" ry="8.39" fill="none" stroke="#6d6e71" stroke-linecap="round" stroke-miterlimit="10" stroke-width="2"/><path d="M1203.45,408.55c-.23,0-.42,0-.66.06-2.38.46-3.91-.41-5.22-2.7-.79,1.51-3.25,2.7-5.27,2.7a5.62,5.62,0,0,1-2.71-.66" transform="translate(-1182.39 -399.92)" fill="none" stroke="#6d6e71" stroke-linecap="round" stroke-miterlimit="10" stroke-width="2"/><path d="M1208.88,419.82l1.69,4a.34.34,0,0,0,.31.21h3.74a.34.34,0,0,1,.22.6l-3.29,2.74a.34.34,0,0,0-.1.38l1.62,4.33a.34.34,0,0,1-.51.39l-3.8-2.71a.34.34,0,0,0-.39,0l-3.8,2.71a.34.34,0,0,1-.51-.39l1.62-4.33a.34.34,0,0,0-.1-.38l-3.29-2.74a.34.34,0,0,1,.22-.6h3.74a.34.34,0,0,0,.31-.2l1.71-4A.34.34,0,0,1,1208.88,419.82Z" transform="translate(-1182.39 -399.92)" fill="none" stroke="#6d6e71" stroke-linecap="round" stroke-miterlimit="10" stroke-width="2"/><line x1="8.98" y1="26.71" x2="5.07" y2="26.71" fill="none" stroke="#6d6e71" stroke-linecap="round" stroke-miterlimit="10" stroke-width="2"/><circle cx="13.08" cy="26.71" r="1.21" fill="#6d6e71"/></svg>