<?xml version="1.0" encoding="UTF-8"?>
<svg width="25px" height="25px" viewBox="0 0 25 25" version="1.1" xmlns="http://www.w3.org/2000/svg" xmlns:xlink="http://www.w3.org/1999/xlink">
    <!-- Generator: Sketch 46.2 (44496) - http://www.bohemiancoding.com/sketch -->
    <title>logos/social media/rocketchat</title>
    <desc>Created with Sketch.</desc>
    <defs></defs>
    <g id="Symbols" stroke="none" stroke-width="1" fill="none" fill-rule="evenodd">
        <g id="logos/social-media/rocketchat" fill-rule="nonzero" fill="#222222">
            <path d="M24.9632536,12.6204782 C24.9632536,11.3677235 24.5885135,10.1664761 23.8490644,9.04984407 C23.1852911,8.04734927 22.2551975,7.15992723 21.0848233,6.41237006 C18.8252599,4.96897089 15.8555094,4.17406445 12.722817,4.17406445 C11.6765073,4.17406445 10.6451663,4.26252599 9.64475052,4.43768191 C9.02406445,3.85680873 8.29760915,3.33409563 7.5287422,2.92068607 C3.42136175,0.93014553 0.0151767152,2.87390852 0.0151767152,2.87390852 C0.0151767152,2.87390852 3.18206861,5.4754158 2.66709979,7.75592516 C1.25031185,9.16138254 0.482432432,10.8560291 0.482432432,12.6204782 C0.482432432,12.6260915 0.482692308,12.6317048 0.482744283,12.6373181 C0.482692308,12.6429314 0.482432432,12.6485447 0.482432432,12.654158 C0.482432432,14.418659 1.25031185,16.1133056 2.66709979,17.518763 C3.18201663,19.7991164 0.0151767152,22.4007796 0.0151767152,22.4007796 C0.0151767152,22.4007796 3.42136175,24.3444906 7.5287422,22.3539501 C8.29755717,21.9405925 9.02406445,21.4178794 9.64475052,20.8369023 C10.6452183,21.0121622 11.6765073,21.1005198 12.722817,21.1005198 C15.8554574,21.1005198 18.8252599,20.3056133 21.0848233,18.8622661 C22.2551975,18.1147089 23.1852391,17.2272869 23.8490644,16.224948 C24.5885135,15.1081601 24.9632536,13.9069127 24.9632536,12.654158 C24.9632536,12.6485967 24.9629418,12.6429314 24.9629418,12.6373181 C24.9629418,12.6317048 24.9632536,12.6260915 24.9632536,12.6204782 Z M12.7277547,19.5032744 C11.4093035,19.5032744 10.1466736,19.3508836 8.9799896,19.072817 C7.79443867,20.4991684 5.18617464,22.4821726 2.65244283,21.8410083 C3.47661123,20.9558212 4.69776507,19.4600312 4.43622661,16.9965696 C2.91761954,15.8147609 2.00592516,14.3025988 2.00592516,12.6545218 C2.00592516,8.87198545 6.80634096,5.80582121 12.7277547,5.80582121 C18.6491684,5.80582121 23.4495842,8.87198545 23.4495842,12.6545218 C23.4495842,16.4368503 18.6491684,19.5032744 12.7277547,19.5032744 Z M14.1519231,12.6544179 C14.1519231,13.4409563 13.5141892,14.0786902 12.7278067,14.0786902 C11.9412162,14.0786902 11.3035863,13.4409044 11.3035863,12.6544179 C11.3035863,11.8679314 11.9412162,11.2302495 12.7278067,11.2302495 C13.5142412,11.2302495 14.1519231,11.8678794 14.1519231,12.6544179 Z M17.6799896,11.2302495 C16.8934511,11.2302495 16.2558732,11.8678794 16.2558732,12.6544179 C16.2558732,13.4409563 16.8935031,14.0786902 17.6799896,14.0786902 C18.46658,14.0786902 19.1040541,13.4409044 19.1040541,12.6544179 C19.1040541,11.8679314 18.46658,11.2302495 17.6799896,11.2302495 Z M7.77551975,11.2302495 C6.98898129,11.2302495 6.35140333,11.8678794 6.35140333,12.6544179 C6.35140333,13.4409563 6.98903326,14.0786902 7.77551975,14.0786902 C8.56211019,14.0786902 9.19968815,13.4409044 9.19968815,12.6544179 C9.19968815,11.8679314 8.56211019,11.2302495 7.77551975,11.2302495 Z" id="Shape"></path>
        </g>
    </g>
</svg>