<svg xmlns="http://www.w3.org/2000/svg" viewBox="0 0 10.5 7.5"><title>Vector Smart Object2</title><path d="M-812.23,239.73q0,.32,0,.88t0,.88c0,.21,0,.48,0,.8a6.49,6.49,0,0,1-.13.87,1.37,1.37,0,0,1-.4.72,1.24,1.24,0,0,1-.73.34,38.4,38.4,0,0,1-3.93.15,38.4,38.4,0,0,1-3.93-.15,1.25,1.25,0,0,1-.73-.34,1.36,1.36,0,0,1-.41-.72,7.27,7.27,0,0,1-.13-.87c0-.32,0-.59,0-.8s0-.5,0-.88,0-.67,0-.88,0-.48,0-.8a6.46,6.46,0,0,1,.13-.86,1.37,1.37,0,0,1,.4-.72,1.24,1.24,0,0,1,.73-.34,38.4,38.4,0,0,1,3.93-.15,38.4,38.4,0,0,1,3.93.15,1.25,1.25,0,0,1,.73.34,1.36,1.36,0,0,1,.41.72,7.25,7.25,0,0,1,.13.86C-812.25,239.26-812.23,239.52-812.23,239.73Zm-3.17,1.2a.34.34,0,0,0,.18-.32.34.34,0,0,0-.18-.32l-3-1.87a.35.35,0,0,0-.38,0,.35.35,0,0,0-.19.33v3.75a.35.35,0,0,0,.19.33.4.4,0,0,0,.18,0,.33.33,0,0,0,.2-.06l3-1.87Z" transform="translate(822.72 -236.86)"/></svg>