<svg xmlns="http://www.w3.org/2000/svg" viewBox="0 0 9 9"><title>Vector Smart Object4</title><path d="M-813.27,204.25v5.62a1.62,1.62,0,0,1-.5,1.19,1.63,1.63,0,0,1-1.19.5h-5.62a1.63,1.63,0,0,1-1.19-.5,1.62,1.62,0,0,1-.5-1.19v-5.62a1.63,1.63,0,0,1,.5-1.19,1.62,1.62,0,0,1,1.19-.49H-815a1.62,1.62,0,0,1,1.19.49A1.63,1.63,0,0,1-813.27,204.25Zm-1.39,5.94a7.18,7.18,0,0,0,.12-1.52,7.5,7.5,0,0,0-.11-1.52.8.8,0,0,0-.25-.43.79.79,0,0,0-.45-.2,24.1,24.1,0,0,0-2.41-.09,24,24,0,0,0-2.41.09.78.78,0,0,0-.45.2.81.81,0,0,0-.25.43,7.33,7.33,0,0,0-.12,1.52,7.18,7.18,0,0,0,.12,1.52.82.82,0,0,0,.25.43.77.77,0,0,0,.44.21q.8.09,2.41.09t2.41-.09a.77.77,0,0,0,.44-.21.82.82,0,0,0,.25-.43Zm-4.49-3v.41h-.47v2.48h-.43v-2.48h-.46v-.41Zm.18-2.32.53-1.73h-.44l-.3,1.14-.31-1.14H-820l.14.4.13.4a8,8,0,0,1,.27.93V206h.43Zm1,3.06v2.15h-.39v-.23a.62.62,0,0,1-.45.26.23.23,0,0,1-.25-.16,1,1,0,0,1,0-.32v-1.7h.39v1.58a.89.89,0,0,0,0,.15q0,.09.09.09t.25-.18v-1.64Zm.57-2.07a.84.84,0,0,0,.12-.51v-.76a.87.87,0,0,0-.12-.51.55.55,0,0,0-.46-.22.53.53,0,0,0-.46.22.87.87,0,0,0-.12.51v.76a.87.87,0,0,0,.12.51.53.53,0,0,0,.46.22.55.55,0,0,0,.46-.22Zm-.27-1.35v.91q0,.3-.19.3t-.19-.3v-.91q0-.3.19-.3T-817.67,204.49Zm1.13,3.64a1.56,1.56,0,0,1,0,.43v.86a1.53,1.53,0,0,1,0,.43.3.3,0,0,1-.31.25.53.53,0,0,1-.4-.24v.21h-.39v-2.89h.39v.94a.52.52,0,0,1,.4-.23.3.3,0,0,1,.31.25Zm-.52,1.61q.17,0,.17-.29v-.92q0-.29-.17-.29a.28.28,0,0,0-.19.09v1.31a.27.27,0,0,0,.19.09Zm.84-3.7h.39v-2.17h-.39v1.66q-.13.18-.25.18t-.09-.09a.87.87,0,0,1,0-.15v-1.59H-817v1.72a1.09,1.09,0,0,0,0,.32.25.25,0,0,0,.25.16.65.65,0,0,0,.45-.26Zm1.19,3.29v.05a2,2,0,0,1,0,.25.55.55,0,0,1-.09.23.53.53,0,0,1-.47.23.56.56,0,0,1-.47-.22.82.82,0,0,1-.12-.5v-.76a.86.86,0,0,1,.12-.5.56.56,0,0,1,.47-.22.53.53,0,0,1,.46.22.84.84,0,0,1,.12.5v.45h-.78v.38q0,.3.2.3a.17.17,0,0,0,.18-.15v0s0-.06,0-.1v-.12Zm-.78-.59h.39v-.2q0-.3-.19-.3t-.19.3Z" transform="translate(822.27 -202.56)"/></svg>