<svg xmlns="http://www.w3.org/2000/svg" viewBox="0 0 24 24"><title>Vector Smart Object2</title><circle cx="15.5" cy="8.5" r="8" fill="none" stroke="#c3424f" stroke-linecap="round" stroke-linejoin="round"/><path d="M394,4022.5h-7a2.5,2.5,0,0,0,0,5h17.5a2,2,0,0,1,0,4h-10" transform="translate(-384 -4008)" fill="none" stroke="#c3424f" stroke-linecap="round" stroke-linejoin="round"/><circle cx="15.5" cy="8.5" r="1.5" fill="none" stroke="#c3424f" stroke-linecap="round" stroke-linejoin="round"/><path d="M400.84,4013.29l1-2.29h0a6.41,6.41,0,0,0-4.59,0h0l1,2.3a3.49,3.49,0,0,1,2.68,0Z" transform="translate(-384 -4008)" fill="none" stroke="#c3424f" stroke-linecap="round" stroke-linejoin="round"/><path d="M396.5,4015.16l-2.5-1h0a6.4,6.4,0,0,0,0,4.59h0l2.42-1a2.91,2.91,0,0,1,.11-2.68Z" transform="translate(-384 -4008)" fill="none" stroke="#c3424f" stroke-linecap="round" stroke-linejoin="round"/><path d="M398.16,4019.5l-1,2.5h0a6.41,6.41,0,0,0,4.59,0h0l-1-2.42a2.91,2.91,0,0,1-2.68-.11Z" transform="translate(-384 -4008)" fill="none" stroke="#c3424f" stroke-linecap="round" stroke-linejoin="round"/><path d="M402.5,4017.84l2.5,1h0a6.41,6.41,0,0,0,0-4.59h0l-2.42,1a2.91,2.91,0,0,1-.11,2.68Z" transform="translate(-384 -4008)" fill="none" stroke="#c3424f" stroke-linecap="round" stroke-linejoin="round"/></svg>