<svg xmlns="http://www.w3.org/2000/svg"><symbol id="icon_brush" viewBox="0 0 24 23.54"><path d="M144.5 957c3.74.18 3.28-3.22 4.37-4.68a3.56 3.56 0 0 1 4.95-.72c5.02 3.75-3.92 10.99-9.32 5.4z" transform="translate(-144 -936)" stroke-linecap="round" stroke-linejoin="round"/><path stroke-linecap="round" stroke-linejoin="round" d="M10.82 13.32l1.62 1.62"/><path d="M154.83 952.67L167.5 939c0-1.7.2-2.5-2.5-2.5l-11.71 14.77" transform="translate(-144 -936)" stroke-linecap="round" stroke-linejoin="round"/></symbol><symbol id="icon_camera" viewBox="0 0 12.04 9.19"><circle cx="6.04" cy="5.02" r="1.86"/><path d="M319.52 620.11h-1.32c-.53 0-1.4-.71-1.81-1.08a1 1 0 0 0-.16-.15l-.07-.07a1 1 0 0 0-.52-.17h-2.29a1 1 0 0 0-.55.19s-1.34 1.29-2 1.29h-1.25a1 1 0 0 0-1 1v5.73a1 1 0 0 0 1 1h10a1 1 0 0 0 1-1v-5.73a1 1 0 0 0-1.03-1.01zm-5 6.43a2.85 2.85 0 1 1 2.85-2.85 2.85 2.85 0 0 1-2.84 2.85zm4.6-4.53a.6.6 0 1 1 .6-.6.6.6 0 0 1-.59.59z" transform="translate(-308.5 -618.67)"/></symbol><symbol id="icon_caret-bold" viewBox="0 0 14.99 10"><path d="M8.38 9.58l6.25-7.14a1.62 1.62 0 0 0 0-2 1.14 1.14 0 0 0-1.77 0L7.5 6.55 2.13.42a1.14 1.14 0 0 0-1.76 0 1.53 1.53 0 0 0-.37 1 1.53 1.53 0 0 0 .37 1l6.25 7.16a1.14 1.14 0 0 0 1.77 0z"/></symbol><symbol id="icon_caret" viewBox="0 0 12.66 7.06"><path d="M.48.57l5.81 5.8L12.17.48"/></symbol><symbol id="icon_check" viewBox="0 0 6.98 5.09"><path d="M39.59 507.71a.35.35 0 0 1 .11.27.36.36 0 0 1-.11.26l-3.4 3.4-.47.47a.38.38 0 0 1-.53 0l-.48-.47-1.88-1.89a.37.37 0 0 1 0-.53l.47-.47a.37.37 0 0 1 .27-.11.35.35 0 0 1 .26.11l1.63 1.63 3.13-3.14a.36.36 0 0 1 .27-.11.37.37 0 0 1 .27.11l.47.47z" transform="translate(-32.71 -507.13)"/></symbol><symbol id="icon_close" viewBox="0 0 9 9"><path stroke-linecap="round" stroke-miterlimit="10" d="M.5 8.5l8-8m0 8l-8-8"/></symbol><symbol id="icon_cloud-thin" viewBox="0 0 23.42 15.07"><path d="M345.58 607.66a6.28 6.28 0 0 0-4.41-5.17c-3.8-1.44-6.59 1.46-7.37 2.4a3.82 3.82 0 0 0-2.71.49 4.18 4.18 0 0 0-1.82 2.16 4.63 4.63 0 0 0-4.12 4.71 4.83 4.83 0 0 0 1.28 3.62 6 6 0 0 0 4.26 1.3h1.68a.5.5 0 0 0 0-1h-.72c-1.43.05-3.4.12-4.54-1a3.88 3.88 0 0 1-1-2.9 3.74 3.74 0 0 1 3.54-3.75h.37l.08-.36a3.09 3.09 0 0 1 1.45-1.86 2.73 2.73 0 0 1 2.21-.32l.37.14.23-.32c.11-.15 2.67-3.74 6.41-2.32s3.79 4.48 3.78 4.61v.43l.42.07c.1 0 2.56.47 2.56 3.84s-3.33 3.79-5.31 3.79a.5.5 0 0 0 0 1c1.9 0 6.31-.47 6.31-4.79.05-3.43-2.06-4.43-2.95-4.77z" transform="translate(-325.16 -602.1)"/><path d="M337.42 607.8l-4 3.82a.5.5 0 0 0 .69.72l2.8-2.67v7a.5.5 0 0 0 1 0v-7l2.69 2.65a.5.5 0 0 0 .7-.71z" transform="translate(-325.16 -602.1)"/></symbol><symbol id="icon_cloud" viewBox="0 0 12.21 8.03"><path d="M318.1 610.87a3.42 3.42 0 0 0-2.34-2.63 3.5 3.5 0 0 0-3.88 1.16 2.16 2.16 0 0 0-1.38.3 2.34 2.34 0 0 0-1 1.07 2.54 2.54 0 0 0-2.13 2.58 2.65 2.65 0 0 0 .72 2 3.74 3.74 0 0 0 2.82.71h.33a.5.5 0 1 0 0-1h-.37a3 3 0 0 1-2.09-.43 1.69 1.69 0 0 1-.41-1.27 1.61 1.61 0 0 1 1.54-1.63h.37l.08-.36a1.31 1.31 0 0 1 .61-.77 1.13 1.13 0 0 1 .89-.14l.37.14.23-.32s1.21-1.72 2.91-1.07a2.37 2.37 0 0 1 1.73 2.06v.42l.41.08c.11 0 1.08.25 1.08 1.67s-1.31 1.64-2.4 1.64a.5.5 0 1 0 0 1c2.13 0 3.4-1 3.4-2.64a2.57 2.57 0 0 0-1.49-2.57z" transform="translate(-307.42 -608.03)"/><path d="M315.91 612.87l-2.12-2.08-2.17 2.08a.5.5 0 1 0 .69.72l1-.93v2.91a.5.5 0 0 0 1 0v-2.89l.92.9a.5.5 0 1 0 .7-.71z" transform="translate(-307.42 -608.03)"/></symbol><symbol id="icon_dots" viewBox="0 0 9 2"><path d="M899.5 5034a.5.5 0 0 1-.5.5.5.5 0 0 1-.5-.5.5.5 0 0 1 .5-.5.5.5 0 0 1 .5.5zm-3.5 0a.5.5 0 0 1-.5.5.5.5 0 0 1-.5-.5.5.5 0 0 1 .5-.5.5.5 0 0 1 .5.5zm-3.5 0a.5.5 0 0 1-.5.5.5.5 0 0 1-.5-.5.5.5 0 0 1 .5-.5.5.5 0 0 1 .5.5z" transform="translate(-891 -5033)" stroke-linejoin="round"/></symbol><symbol id="icon_eye-disabled" viewBox="0 0 10.5 7.97"><path d="M304.64 643.16a6.2 6.2 0 0 0-1.51-1.68L302 642.6a2.66 2.66 0 0 1-3.45 3.45l-.65.65a5.57 5.57 0 0 0 1.6.24 5.7 5.7 0 0 0 2.93-.81 6.22 6.22 0 0 0 2.21-2.16.76.76 0 0 0 0-.81zm-6.72 2.53l3.74-3.74.88-.88.83-.83a.35.35 0 0 0-.5-.5l-1 1a5.6 5.6 0 0 0-2.35-.52 5.69 5.69 0 0 0-2.93.81 6.26 6.26 0 0 0-2.21 2.16.76.76 0 0 0 0 .81 6.25 6.25 0 0 0 2.13 2.1l-.91.91a.35.35 0 0 0 .5.5l1.07-1.07zm-1.08-2.14a2.68 2.68 0 0 1 2.68-2.68 2.63 2.63 0 0 1 1.62.57l-3.73 3.73a2.63 2.63 0 0 1-.57-1.62z" transform="translate(-294.25 -639.62)"/></symbol><symbol id="icon_eye" viewBox="0 0 10.5 6.75"><path d="M330.16 643.77a6.26 6.26 0 0 0-2.21-2.16 5.67 5.67 0 0 0-5.85 0 6.26 6.26 0 0 0-2.21 2.16.76.76 0 0 0 0 .81 6.26 6.26 0 0 0 2.21 2.16 5.67 5.67 0 0 0 5.85 0 6.22 6.22 0 0 0 2.21-2.16.76.76 0 0 0 0-.81zm-5.16 3.07a2.68 2.68 0 1 1 2.68-2.68 2.68 2.68 0 0 1-2.68 2.68z" transform="translate(-319.78 -640.8)"/><path d="M323.94 644.54a.35.35 0 0 1-.35-.32 1.58 1.58 0 0 1 .36-1.15 1.56 1.56 0 0 1 1.21-.47.35.35 0 1 1 0 .71.75.75 0 0 0-.87.83.35.35 0 0 1-.32.39z" transform="translate(-319.78 -640.8)"/></symbol><symbol id="icon_facebook-social" viewBox="0 0 4.5 9.66"><path d="M-713.19 218.56h1.51l-.18 1.66h-1.33v4.83h-2v-4.83h-1v-1.66h1v-1a2.31 2.31 0 0 1 .5-1.62 2.16 2.16 0 0 1 1.66-.55h1.33v1.66h-.83a1.43 1.43 0 0 0-.37 0 .32.32 0 0 0-.2.14.56.56 0 0 0-.08.2 1.84 1.84 0 0 0 0 .29z" transform="translate(716.19 -215.4)"/></symbol><symbol id="icon_facebook" viewBox="0 0 9 9"><path d="M-710.33 202.93v5.62a1.63 1.63 0 0 1-.5 1.19 1.63 1.63 0 0 1-1.19.5h-5.62a1.63 1.63 0 0 1-1.19-.5 1.63 1.63 0 0 1-.5-1.19v-5.62a1.63 1.63 0 0 1 .5-1.19 1.63 1.63 0 0 1 1.19-.5h5.64a1.63 1.63 0 0 1 1.19.5 1.63 1.63 0 0 1 .48 1.19zm-1.34 2.94l.13-1.28h-1.16V204a.66.66 0 0 1 .09-.4q.09-.11.42-.11h.64v-1.28h-1a1.66 1.66 0 0 0-1.28.42 1.79 1.79 0 0 0-.39 1.25v.77h-.78v1.28h.77v3.72h1.54v-3.72z" transform="translate(719.33 -201.25)"/></symbol><symbol id="icon_header-hero" viewBox="0 0 24.03 25.5"><path d="M11.67 24.47h10.52a.85.85 0 0 0 .85-.85V20.8c0-.7-4-2.73-7.55-4.19a.85.85 0 0 1-.53-.79V13.9a.81.81 0 0 1 .27-.62c.37-.31 1-1.11 1.07-3a.82.82 0 0 1 .36-.61 2.09 2.09 0 0 0 .2-2.59.88.88 0 0 1-.28-1 4.7 4.7 0 0 0 .37-2.92c-.73-2.94-8-2.94-8.71 0-2.34-.48-1.5 1.62-1 2.86a.85.85 0 0 1-.27 1c-.84.66-.64 2.74.59 2.74 0 2.25.74 3.16 1.17 3.49a.81.81 0 0 1 .3.65v1.9a.85.85 0 0 1-.53.79C4.95 18.05.95 20.08.95 20.78v2.82a.85.85 0 0 0 .85.85z" stroke-linecap="round" stroke-miterlimit="10" stroke-width="2"/></symbol><symbol id="icon_header-message" viewBox="0 0 33.92 30.53"><path d="M28.29 20.84v8.69l-8.7-8.7H3.93a2.92 2.92 0 0 1-2.92-2.92v-14A2.92 2.92 0 0 1 3.93.99H30a2.92 2.92 0 0 1 2.92 2.92v14A2.92 2.92 0 0 1 30 20.83h-1.7z" stroke-miterlimit="10" stroke-width="2"/><path d="M13.43 8.89l2.78 4.82a.86.86 0 0 0 1.49 0l2.78-4.82a.86.86 0 0 0-.74-1.29h-5.56a.86.86 0 0 0-.75 1.29z" stroke-miterlimit="10" stroke-width="2"/><path stroke-linecap="round" stroke-miterlimit="10" stroke-width="2" d="M4.5 8.87v7.25m0-11.67v.74"/></symbol><symbol id="icon_header-notification" viewBox="0 0 14 16"><path d="M1325 144.83c-.86 0-.86-.6-.86-.9 0-3.53-1.07-6.52-3.2-7.63-.21-1.09-1-2.47-1.94-2.47s-1.73 1.38-1.94 2.47c-2.13 1.11-3.2 4.1-3.2 7.63 0 .3 0 .9-.86.9h-1v2h14v-2zm-6 5a2 2 0 0 0 2-2h-4a2 2 0 0 0 2 2z" transform="translate(-1311.96 -133.83)"/><path d="M1320.68 146.83a2 2 0 0 0-3.45 0z" transform="translate(-1311.96 -133.83)"/></symbol><symbol id="icon_header-search" viewBox="0 0 57.89 57.25"><path d="M927.67 496l-12.77-12.81a23 23 0 1 0-8.66 9l12.59 12.59a6.25 6.25 0 1 0 8.84-8.84m-53.07-23.56a20 20 0 1 1 37.06 10.38q-.51.84-1.11 1.63l-.15.2c-.4.52-.82 1-1.27 1.48l-.17.19a20.14 20.14 0 0 1-1.5 1.4l-.09.08a19.25 19.25 0 0 1-1.7 1.27 20 20 0 0 1-31.09-16.63m50.95 30.3a3.33 3.33 0 0 1-4.6 0l-12.19-12.19.13-.11a23.17 23.17 0 0 0 4.37-4.58l12.28 12.28a3.25 3.25 0 0 1 0 4.6" transform="translate(-871.6 -449.38)"/><path d="M908.35 472.38a13.75 13.75 0 1 0-13.75 13.75 13.77 13.77 0 0 0 13.75-13.75m-13.75 10.75a10.75 10.75 0 1 1 10.75-10.75 10.76 10.76 0 0 1-10.75 10.75" transform="translate(-871.6 -449.38)"/></symbol><symbol id="icon_header-sharp" viewBox="0 0 19.21 19.21"><path stroke-linecap="round" stroke-miterlimit="10" stroke-width="2" d="M6.46 1v17.21M12.75 1v17.21M1 12.75h17.21M1 6.46h17.21"/></symbol><symbol id="icon_instagram" viewBox="0 0 8.71 8.71"><rect x=".5" y=".5" width="7.71" height="7.71" rx="1.98" ry="1.98"/><path d="M-763.67 197.57a1.63 1.63 0 0 1-1.62-1.62 1.63 1.63 0 0 1 1.62-1.62 1.63 1.63 0 0 1 1.62 1.62 1.63 1.63 0 0 1-1.62 1.62z" transform="translate(768.02 -191.59)"/><circle cx="6.64" cy="2.12" r=".08"/></symbol><symbol id="icon_logo-white" viewBox="0 0 440.4 312.61"><path d="M57.5 70.76l55.64-47.62h217.01l55.73 47.62-17.46 21.17h29.99l19.79-23.98L338.7 0H104.59l-79.4 67.95 19.78 23.98h30L57.5 70.76zm164.07 205.49l-70.38-85.32H121.2l100.37 121.69 100.38-121.69h-30l-70.38 85.32z"/><path d="M92 435.89H77.8v-61.53H92zm88.48 0h-15.31l-4.46-13.36h-23.38l-4.45 13.36h-15l22.83-61.53h16.7zm-22.27-23.95l-7.8-21.16q-.83-2.78-1.39-5.29h-.28a30.5 30.5 0 0 1-1.39 5.57l-7 20.88h17.82zm91.88 23.95h-13.37v-36.48q0-5.85.56-13.92H237a89.14 89.14 0 0 1-2.23 10.58l-11.41 39.82h-11.69L200.25 395q-.83-3.34-2.23-9.47h-.28q0 1.67.28 4.73.27 8.36.28 12v33.69h-13.08v-61.6h20.6l10.86 40.37q.28 1.67.84 6.68a11.68 11.68 0 0 1 .28-2.23q0-3.62.56-4.46l10.86-40.37h20.88v61.53zm86.91 0h-13.88V411.1h-26.73v24.78h-13.92v-61.52h13.92v24.78h26.73v-24.78H337zm55.92 0h-48.18v-61.53h47.33v11.41h-33.41v13.36h31.19v11.42h-31.19V425h34.25v10.86zm61.52-.28H436.9l-15-23.67h-8.07v23.95h-13.96v-61.53H428q22.56.56 23.39 18.38.27 15.31-15 18.37zm-28.68-50.39h-12v16.43h12q11.14 0 10.86-8.07.56-8.64-10.85-8.37zm92.44 20.32q-1.67 29.8-30.35 31.46-29-1.67-30.62-31.46 1.39-30.9 30.62-32 28.4 1.65 30.35 32zm-15.31 0q-.57-19.21-15.31-20-15 .84-15.87 20 .55 18.93 15.59 19.77 15.03-.56 15.59-19.77z" transform="translate(-77.8 -264.07)"/></symbol><symbol id="icon_logo" viewBox="0 0 440.4 312.61"><path d="M57.5 70.76l55.64-47.62h217.01l55.73 47.62-17.46 21.17h29.99l19.79-23.98L338.7 0H104.59l-79.4 67.95 19.78 23.98h30L57.5 70.76zm164.07 205.49l-70.38-85.32H121.2l100.37 121.68 100.38-121.68h-30l-70.38 85.32z"/><path d="M92 435.89H77.8v-61.53H92zm88.48 0h-15.31l-4.46-13.37h-23.38l-4.45 13.37h-15l22.83-61.53h16.7zm-22.27-23.95l-7.8-21.16q-.83-2.78-1.39-5.29h-.28a30.53 30.53 0 0 1-1.39 5.57l-7 20.88zm91.88 23.95h-13.37v-36.48q0-5.85.56-13.92H237a89.12 89.12 0 0 1-2.23 10.58l-11.42 39.82h-11.68L200.25 395q-.83-3.34-2.23-9.47h-.28q0 1.67.28 4.73.27 8.36.28 12v33.69h-13.08v-61.59h20.6l10.86 40.37q.28 1.67.84 6.68a11.65 11.65 0 0 1 .28-2.23q0-3.62.56-4.46l10.86-40.37h20.88zm86.91 0h-13.88V411.1h-26.73v24.78h-13.92v-61.52h13.92v24.78h26.73v-24.78H337zm55.92 0h-48.18v-61.53h47.33v11.41h-33.41v13.37h31.19v11.42h-31.19V425h34.25zm61.52-.28H436.9l-15-23.67h-8.07v23.95h-13.96v-61.53H428q22.56.56 23.39 18.38.27 15.31-15 18.37zm-28.68-50.39h-12v16.43h12q11.14 0 10.86-8.07.56-8.64-10.85-8.37zm92.44 20.32q-1.67 29.8-30.35 31.46-29-1.67-30.62-31.46 1.39-30.9 30.62-32 28.4 1.65 30.35 32zm-15.31 0q-.57-19.21-15.31-20-15 .84-15.87 20 .55 18.93 15.59 19.77 15.03-.56 15.59-19.77z" transform="translate(-77.8 -264.07)"/></symbol><symbol id="icon_menu-dashboard" viewBox="0 0 33.92 33.08"><rect x="1" y="1" width="13.83" height="13.83" rx="2.92" ry="2.92" stroke-miterlimit="10" stroke-width="2"/><rect x="1" y="18.25" width="13.83" height="13.83" rx="2.92" ry="2.92" stroke-miterlimit="10" stroke-width="2"/><rect x="19.08" y="1" width="13.83" height="31.08" rx="2.92" ry="2.92" stroke-miterlimit="10" stroke-width="2"/><path stroke-linecap="round" stroke-miterlimit="10" stroke-width="2" d="M22.58 5.67h5.59M22.58 9h2.8m-2.8 19.25h2.8"/><circle cx="7.92" cy="7.92" r="2" stroke-linecap="round" stroke-miterlimit="10" stroke-width="2"/></symbol><symbol id="icon_menu-heart" viewBox="0 0 34.72 32.5"><path d="M30.89 3.83a9.73 9.73 0 0 0-13.53-.19A9.7 9.7 0 0 0 3.83 17.56l13.53 13.53 13.53-13.53a9.74 9.74 0 0 0 0-13.73zM16.13 24l-7.34-7.34" stroke-linecap="round" stroke-miterlimit="10" stroke-width="2"/><circle cx="6.17" cy="13.8" r="1.21"/></symbol><symbol id="icon_menu-messages" viewBox="0 0 33.92 30.53"><path d="M28.29 20.84v8.69l-8.7-8.7H3.92A2.92 2.92 0 0 1 1 17.91v-14A2.92 2.92 0 0 1 3.92 1H30a2.92 2.92 0 0 1 2.92 2.92v14A2.92 2.92 0 0 1 30 20.83h-1.7z" stroke-miterlimit="10" stroke-width="2"/><path d="M13.43 8.88l2.78 4.82a.86.86 0 0 0 1.49 0l2.78-4.82a.86.86 0 0 0-.74-1.29h-5.56a.86.86 0 0 0-.75 1.29z" stroke-miterlimit="10" stroke-width="2"/><path stroke-linecap="round" stroke-miterlimit="10" stroke-width="2" d="M4.5 8.87v7.25m0-11.67v.74"/></symbol><symbol id="icon_menu-offers" viewBox="0 0 36.04 28.76"><rect x="1" y="5.21" width="34.04" height="22.54" rx="2.36" ry="2.36" stroke-linecap="round" stroke-miterlimit="10" stroke-width="2"/><path d="M23 4.38l-.61-2.58a1 1 0 0 0-1-.8h-6.23a1 1 0 0 0-1 .8l-.57 2.58M6.1 4.11h2.59m18.57 0h2.59M5.22 15.09v8.02" stroke-linecap="round" stroke-miterlimit="10" stroke-width="2"/><circle cx="5.22" cy="11.49" r=".25" transform="rotate(-57.68 5.222 11.49)" stroke-linecap="round" stroke-miterlimit="10" stroke-width="2"/></symbol><symbol id="icon_menu-search" viewBox="0 0 34.51 35.19"><circle cx="12.03" cy="12.03" r="11.03" stroke-linecap="round" stroke-miterlimit="10" stroke-width="2"/><path d="M7.11 16.72a6.8 6.8 0 0 1 7.39-11" stroke-linecap="round" stroke-miterlimit="10" stroke-width="2"/><circle cx="9.87" cy="18.69" r=".2" stroke-linecap="round" stroke-miterlimit="10" stroke-width="2"/><rect x="24.82" y="20.52" width="5.13" height="15.11" rx="2.5" ry="2.5" transform="rotate(-45 27.39 28.075)" stroke-linecap="round" stroke-miterlimit="10" stroke-width="2"/><path stroke-linecap="round" stroke-miterlimit="10" stroke-width="2" d="M19.43 20.22l2.35 2.36m-2.18 9.86H8.83a2 2 0 0 1-2.11-2V27M25.49 3.44h2.66a1.69 1.69 0 0 1 1.58 1.78V18.9"/></symbol><symbol id="icon_menu-settings" viewBox="0 0 41.6 41.6"><path d="M21.21 9.94a10.82 10.82 0 0 1 0 21.64" stroke-linecap="round" stroke-miterlimit="10" stroke-width="2"/><circle cx="20.8" cy="20.76" r="5.33" stroke-linecap="round" stroke-miterlimit="10" stroke-width="2"/><circle cx="9.03" cy="14.04" r=".31" transform="rotate(-57.68 9.027 14.035)" stroke-linecap="round" stroke-miterlimit="10" stroke-width="2"/><path d="M37.84 17.81h-.37a1.4 1.4 0 0 1-1.34-1.07v-.09a1.4 1.4 0 0 1 .63-1.6l.32-.18a2.77 2.77 0 0 0 1-3.78l-.22-.39a2.77 2.77 0 0 0-3.78-1l-.32.19A1.4 1.4 0 0 1 32 9.62v-.06a1.4 1.4 0 0 1-.26-1.7l.19-.32a2.77 2.77 0 0 0-1-3.78l-.39-.22a2.77 2.77 0 0 0-3.78 1l-.18.32a1.4 1.4 0 0 1-1.6.63h-.09a1.4 1.4 0 0 1-1.07-1.34v-.38A2.77 2.77 0 0 0 21 1h-.45a2.77 2.77 0 0 0-2.77 2.77v.37a1.4 1.4 0 0 1-1.07 1.34h-.09a1.4 1.4 0 0 1-1.6-.63l-.18-.32a2.77 2.77 0 0 0-3.78-1l-.39.22a2.77 2.77 0 0 0-1 3.78l.19.32a1.4 1.4 0 0 1-.26 1.7l-.06.06a1.4 1.4 0 0 1-1.7.26l-.32-.19a2.77 2.77 0 0 0-3.78 1l-.22.39a2.77 2.77 0 0 0 1 3.78l.32.18a1.4 1.4 0 0 1 .63 1.6v.09a1.4 1.4 0 0 1-1.34 1.07h-.36A2.77 2.77 0 0 0 1 20.58V21a2.77 2.77 0 0 0 2.77 2.77h.37a1.4 1.4 0 0 1 1.34 1.07v.09a1.4 1.4 0 0 1-.63 1.6l-.32.18a2.77 2.77 0 0 0-1 3.78l.22.39a2.77 2.77 0 0 0 3.78 1l.32-.19a1.4 1.4 0 0 1 1.7.26l.06.06a1.4 1.4 0 0 1 .26 1.7l-.19.32a2.77 2.77 0 0 0 1 3.78l.39.22a2.77 2.77 0 0 0 3.78-1l.18-.32a1.4 1.4 0 0 1 1.6-.63h.09a1.4 1.4 0 0 1 1.07 1.34v.37a2.77 2.77 0 0 0 2.77 2.77H21a2.77 2.77 0 0 0 2.77-2.77v-.37a1.4 1.4 0 0 1 1.07-1.34h.09a1.4 1.4 0 0 1 1.6.63l.18.32a2.77 2.77 0 0 0 3.78 1l.39-.22a2.77 2.77 0 0 0 1-3.78l-.19-.32A1.4 1.4 0 0 1 32 32a1.4 1.4 0 0 1 1.7-.26l.32.19a2.77 2.77 0 0 0 3.78-1l.22-.39a2.77 2.77 0 0 0-1-3.78l-.32-.18a1.4 1.4 0 0 1-.63-1.6v-.09a1.4 1.4 0 0 1 1.34-1.07h.37A2.77 2.77 0 0 0 40.6 21v-.45a2.77 2.77 0 0 0-2.76-2.74z" stroke-linecap="round" stroke-miterlimit="10" stroke-width="2"/></symbol><symbol id="icon_menu-shortlists" viewBox="0 0 29.56 38.08"><path d="M28.56 23.11V2.45A1.45 1.45 0 0 0 27.11 1H2.45A1.45 1.45 0 0 0 1 2.45v33.18a1.45 1.45 0 0 0 1.45 1.45h12.09a1.45 1.45 0 0 0 1-.42l12.59-12.52a1.45 1.45 0 0 0 .43-1.03z" stroke-linecap="round" stroke-miterlimit="10" stroke-width="2"/><path d="M12 37.08c5.63 0 5.6-7.78 5.38-10.78a.94.94 0 0 1 1-1c2.87.29 10.1.51 10.1-4.68" stroke-linecap="round" stroke-miterlimit="10" stroke-width="2"/><path d="M17.54 34.13l-.24-8.98 9.52.3-9.28 8.68z"/><path stroke-linecap="round" stroke-miterlimit="10" stroke-width="2" d="M5.21 5.89h2.6m3.41 0h9.08M5.21 10.77h2.6m-2.6 4.61h2.6m3.41-4.61h9.08"/><circle cx="5.21" cy="33.39" r=".21" stroke-linecap="round" stroke-miterlimit="10" stroke-width="2"/></symbol><symbol id="icon_menu-statistics" viewBox="0 0 36.04 33.17"><path stroke-linecap="round" stroke-miterlimit="10" stroke-width="2" d="M1 32.17h34.04"/><rect x="14.49" y="1" width="6.36" height="26.67" rx="1.93" ry="1.93" stroke-linecap="round" stroke-miterlimit="10" stroke-width="2"/><rect x="2.42" y="12.49" width="6.36" height="15.17" rx="1.93" ry="1.93" stroke-linecap="round" stroke-miterlimit="10" stroke-width="2"/><rect x="26.56" y="4.25" width="6.36" height="23.42" rx="1.93" ry="1.93" stroke-linecap="round" stroke-miterlimit="10" stroke-width="2"/><circle cx="7.47" cy="9.04" r=".25" transform="rotate(-57.68 7.472 9.037)" stroke-linecap="round" stroke-miterlimit="10" stroke-width="2"/><path stroke-linecap="round" stroke-miterlimit="10" stroke-width="2" d="M27.26 1H32"/></symbol><symbol id="icon_minus-border" viewBox="0 0 24 6"><path stroke-linecap="round" stroke-linejoin="round" d="M.5.5h23v5H.5z"/></symbol><symbol id="icon_palette" viewBox="0 0 24 22.24"><path d="M435.87 957.13a11.5 11.5 0 1 1 16.26 0 5.5 5.5 0 0 1-7.78 0l-4.24-4.24a1 1 0 0 0-1.41 1.41 2 2 0 1 1-2.83 2.83z" transform="translate(-432 -937)" stroke-linecap="round" stroke-linejoin="round"/><circle cx="448.24" cy="944.05" r="1.5" transform="rotate(-45.01 -898.48 996.946)" stroke-linecap="round" stroke-linejoin="round"/><circle cx="451" cy="949" r="1" transform="rotate(-45 -896.06 1001.97)" stroke-linecap="round" stroke-linejoin="round"/><circle cx="448.24" cy="953.95" r="2" transform="rotate(-45.01 -898.48 1006.844)" stroke-linecap="round" stroke-linejoin="round"/><circle cx="442.23" cy="942.99" r="1.5" transform="rotate(-45.01 -904.612 995.777)" stroke-linecap="round" stroke-linejoin="round"/></symbol><symbol id="icon_picture" viewBox="0 0 11.25 9"><path d="M412 414.63v7.13a.94.94 0 0 1-.94.94h-9.37a.94.94 0 0 1-.94-.94v-7.12a.94.94 0 0 1 .94-.94h9.38a.94.94 0 0 1 .94.94zm-.94-.19h-9.37a.18.18 0 0 0-.13.05.18.18 0 0 0-.06.13v7.13a.18.18 0 0 0 .06.13.18.18 0 0 0 .13.06h9.38a.18.18 0 0 0 .13-.06.18.18 0 0 0 .06-.13v-7.12a.18.18 0 0 0-.06-.13.18.18 0 0 0-.14-.06zm-6.89 1.08a1.13 1.13 0 1 1-.8-.33 1.09 1.09 0 0 1 .8.33zm6.33 3v2.63h-8.25v-1.12l1.88-1.87.94.94 3-3z" transform="translate(-400.75 -413.69)"/></symbol><symbol id="icon_pinterest" viewBox="0 0 9 9"><path d="M-852.24 202.27a1.62 1.62 0 0 1 1.19.49 1.63 1.63 0 0 1 .5 1.19v5.62a1.62 1.62 0 0 1-.5 1.19 1.63 1.63 0 0 1-1.19.5h-4.25a4.09 4.09 0 0 0 .63-1.23l.31-1.22a1 1 0 0 0 .43.39 1.38 1.38 0 0 0 .66.16 2.1 2.1 0 0 0 1.73-.87 3.46 3.46 0 0 0 .67-2.19 2.32 2.32 0 0 0-.21-1 2.64 2.64 0 0 0-.57-.81 2.68 2.68 0 0 0-.89-.57 3.07 3.07 0 0 0-1.15-.21 3.77 3.77 0 0 0-1.14.17 2.88 2.88 0 0 0-.9.45 3.15 3.15 0 0 0-.63.64 2.65 2.65 0 0 0-.39.75 2.52 2.52 0 0 0-.13.78 2.3 2.3 0 0 0 .23 1.05 1.31 1.31 0 0 0 .68.64.17.17 0 0 0 .14 0 .16.16 0 0 0 .09-.11q.06-.26.09-.36a.25.25 0 0 0-.06-.25 1.36 1.36 0 0 1-.29-.88 2.08 2.08 0 0 1 .61-1.5 2.11 2.11 0 0 1 1.58-.62 1.87 1.87 0 0 1 1.36.47 1.64 1.64 0 0 1 .49 1.23 3.32 3.32 0 0 1-.4 1.68 1.16 1.16 0 0 1-1 .69.71.71 0 0 1-.57-.26.65.65 0 0 1-.13-.61c0-.13.08-.31.16-.54s.13-.43.17-.6a1.82 1.82 0 0 0 .06-.44.73.73 0 0 0-.16-.48.54.54 0 0 0-.44-.19.74.74 0 0 0-.61.33 1.32 1.32 0 0 0-.25.82 1.6 1.6 0 0 0 .14.71l-.57 2.43a4.44 4.44 0 0 0 0 1.49h-1.07a1.63 1.63 0 0 1-1.19-.5 1.62 1.62 0 0 1-.5-1.19V204a1.63 1.63 0 0 1 .5-1.19 1.62 1.62 0 0 1 1.19-.49z" transform="translate(859.56 -202.27)"/></symbol><symbol id="icon_plus-border" viewBox="0 0 24 14.44"><path stroke-linecap="round" stroke-linejoin="round" d="M.5.5h23v13.44H.5zM12 4.22v6m-3-3h6"/></symbol><symbol id="icon_plus" viewBox="0 0 12.31 12.31"><path stroke-linecap="round" stroke-miterlimit="10" d="M6.16 11.81V.5m5.65 5.66H.5"/></symbol><symbol id="icon_save" viewBox="0 0 16 16"><path d="M6.69 14H2V2h5.59L11 5.42V6h2V4.59L8.41 0H0v16h8.61l-1.88-1.96-.04-.04z"/><path d="M14 11.36v-4H9v4H7.29l2.17 2.37L11.64 16l2.18-2.32L16 11.36h-2z"/></symbol><symbol id="icon_search" viewBox="0 0 15.45 15.1"><path d="M15 12.54l-2.84-2.85a6.5 6.5 0 1 0-2 2.21l2.77 2.77A1.5 1.5 0 0 0 15 12.54zM2 6.5A4.5 4.5 0 1 1 6.5 11 4.5 4.5 0 0 1 2 6.5z"/></symbol><symbol id="icon_slider-handler" viewBox="0 0 12.15 18.23"><path d="M-81.3 305.79l-4.33-9.19a1.37 1.37 0 0 0-.55-.62 1.52 1.52 0 0 0-.8-.23 1.52 1.52 0 0 0-.8.23 1.44 1.44 0 0 0-.56.62l-4.32 9.19a5 5 0 0 0-.39 2.12 5.86 5.86 0 0 0 1.78 4.3A5.86 5.86 0 0 0-87 314a5.86 5.86 0 0 0 4.3-1.78 5.86 5.86 0 0 0 1.78-4.3 5 5 0 0 0-.38-2.13zm-7.63 4.3a.5.5 0 0 1-.5.5.5.5 0 0 1-.5-.5v-4.92a.5.5 0 0 1 .5-.5.5.5 0 0 1 .5.5zm2.44 0a.5.5 0 0 1-.5.5.5.5 0 0 1-.5-.5v-4.92a.5.5 0 0 1 .5-.5.5.5 0 0 1 .5.5zm2.5 0a.5.5 0 0 1-.5.5.5.5 0 0 1-.5-.5v-4.92a.5.5 0 0 1 .5-.5.5.5 0 0 1 .5.5z" transform="translate(93.07 -295.76)"/></symbol><symbol id="icon_tape" viewBox="0 0 24 24"><circle cx="15.5" cy="8.5" r="8" stroke-linecap="round" stroke-linejoin="round"/><path d="M394 4022.5h-7a2.5 2.5 0 0 0 0 5h17.5a2 2 0 0 1 0 4h-10" transform="translate(-384 -4008)" stroke-linecap="round" stroke-linejoin="round"/><circle cx="15.5" cy="8.5" r="1.5" stroke-linecap="round" stroke-linejoin="round"/><path d="M400.84 4013.29l1-2.29a6.41 6.41 0 0 0-4.59 0l1 2.3a3.49 3.49 0 0 1 2.68 0zm-4.34 1.87l-2.5-1a6.4 6.4 0 0 0 0 4.59l2.42-1a2.91 2.91 0 0 1 .11-2.68zm1.66 4.34l-1 2.5a6.41 6.41 0 0 0 4.59 0l-1-2.42a2.91 2.91 0 0 1-2.68-.11zm4.34-1.66l2.5 1a6.41 6.41 0 0 0 0-4.59l-2.42 1a2.91 2.91 0 0 1-.11 2.68z" transform="translate(-384 -4008)" stroke-linecap="round" stroke-linejoin="round"/></symbol><symbol id="icon_twitter-social" viewBox="0 0 9.23 7.5"><path d="M-873.54 222.37a3.77 3.77 0 0 0 1.09-.29 4 4 0 0 1-.95 1v.25a5.37 5.37 0 0 1-.22 1.52 5.5 5.5 0 0 1-.68 1.46 5.72 5.72 0 0 1-1.08 1.23 4.81 4.81 0 0 1-1.51.86 5.53 5.53 0 0 1-1.89.32 5.26 5.26 0 0 1-2.91-.85h.46a3.71 3.71 0 0 0 2.35-.81 1.85 1.85 0 0 1-1.1-.38 1.85 1.85 0 0 1-.67-.93h.36a2 2 0 0 0 .5-.06 1.86 1.86 0 0 1-1.09-.65 1.83 1.83 0 0 1-.43-1.2 1.88 1.88 0 0 0 .86.24 1.89 1.89 0 0 1-.62-.67 1.84 1.84 0 0 1-.23-.9 1.85 1.85 0 0 1 .26-1 5.36 5.36 0 0 0 1.73 1.4 5.27 5.27 0 0 0 2.18.58 2.1 2.1 0 0 1 0-.43 1.83 1.83 0 0 1 .55-1.34 1.82 1.82 0 0 1 1.34-.55 1.82 1.82 0 0 1 1.38.6 3.71 3.71 0 0 0 1.2-.46 1.84 1.84 0 0 1-.83 1z" transform="translate(881.68 -221.18)"/></symbol><symbol id="icon_youtube-social" viewBox="0 0 10.5 7.5"><path d="M-812.23 239.73v2.56a6.49 6.49 0 0 1-.13.87 1.37 1.37 0 0 1-.4.72 1.24 1.24 0 0 1-.73.34 38.4 38.4 0 0 1-3.93.15 38.4 38.4 0 0 1-3.93-.15 1.25 1.25 0 0 1-.73-.34 1.36 1.36 0 0 1-.41-.72 7.27 7.27 0 0 1-.13-.87v-3.36a6.46 6.46 0 0 1 .13-.86 1.37 1.37 0 0 1 .4-.72 1.24 1.24 0 0 1 .73-.34 38.4 38.4 0 0 1 3.93-.15 38.4 38.4 0 0 1 3.93.15 1.25 1.25 0 0 1 .73.34 1.36 1.36 0 0 1 .41.72 7.25 7.25 0 0 1 .13.86c-.02.33 0 .59 0 .8zm-3.17 1.2a.34.34 0 0 0 .18-.32.34.34 0 0 0-.18-.32l-3-1.87a.35.35 0 0 0-.38 0 .35.35 0 0 0-.19.33v3.75a.35.35 0 0 0 .19.33.4.4 0 0 0 .18 0 .33.33 0 0 0 .2-.06l3-1.87z" transform="translate(822.72 -236.86)"/></symbol><symbol id="icon_youtube" viewBox="0 0 9 9"><path d="M-813.27 204.25v5.62a1.62 1.62 0 0 1-.5 1.19 1.63 1.63 0 0 1-1.19.5h-5.62a1.63 1.63 0 0 1-1.19-.5 1.62 1.62 0 0 1-.5-1.19v-5.62a1.63 1.63 0 0 1 .5-1.19 1.62 1.62 0 0 1 1.19-.49h5.58a1.62 1.62 0 0 1 1.19.49 1.63 1.63 0 0 1 .54 1.19zm-1.39 5.94a7.18 7.18 0 0 0 .12-1.52 7.5 7.5 0 0 0-.11-1.52.8.8 0 0 0-.25-.43.79.79 0 0 0-.45-.2 24.1 24.1 0 0 0-2.41-.09 24 24 0 0 0-2.41.09.78.78 0 0 0-.45.2.81.81 0 0 0-.25.43 7.33 7.33 0 0 0-.12 1.52 7.18 7.18 0 0 0 .12 1.52.82.82 0 0 0 .25.43.77.77 0 0 0 .44.21q.8.09 2.41.09t2.41-.09a.77.77 0 0 0 .44-.21.82.82 0 0 0 .25-.43zm-4.49-3v.41h-.47v2.48h-.43v-2.48h-.46v-.41zm.18-2.32l.53-1.73h-.44l-.3 1.14-.31-1.14h-.51l.14.4.13.4a8 8 0 0 1 .27.93V206h.43zm1 3.06v2.15h-.39v-.23a.62.62 0 0 1-.45.26.23.23 0 0 1-.25-.16 1 1 0 0 1 0-.32v-1.7h.39v1.58a.89.89 0 0 0 0 .15q0 .09.09.09t.25-.18v-1.64zm.57-2.07a.84.84 0 0 0 .12-.51v-.76a.87.87 0 0 0-.12-.51.55.55 0 0 0-.46-.22.53.53 0 0 0-.46.22.87.87 0 0 0-.12.51v.76a.87.87 0 0 0 .12.51.53.53 0 0 0 .46.22.55.55 0 0 0 .46-.22zm-.27-1.35v.91q0 .3-.19.3t-.19-.3v-.91q0-.3.19-.3t.19.28zm1.13 3.64a1.56 1.56 0 0 1 0 .43v.86a1.53 1.53 0 0 1 0 .43.3.3 0 0 1-.31.25.53.53 0 0 1-.4-.24v.21h-.39v-2.89h.39v.94a.52.52 0 0 1 .4-.23.3.3 0 0 1 .31.25zm-.52 1.61q.17 0 .17-.29v-.92q0-.29-.17-.29a.28.28 0 0 0-.19.09v1.31a.27.27 0 0 0 .19.09zm.84-3.7h.39v-2.17h-.39v1.66q-.13.18-.25.18t-.09-.09a.87.87 0 0 1 0-.15v-1.59h-.44v1.72a1.09 1.09 0 0 0 0 .32.25.25 0 0 0 .25.16.65.65 0 0 0 .45-.26zm1.19 3.29v.05a2 2 0 0 1 0 .25.55.55 0 0 1-.09.23.53.53 0 0 1-.47.23.56.56 0 0 1-.47-.22.82.82 0 0 1-.12-.5v-.76a.86.86 0 0 1 .12-.5.56.56 0 0 1 .47-.22.53.53 0 0 1 .46.22.84.84 0 0 1 .12.5v.45h-.78v.38q0 .3.2.3a.17.17 0 0 0 .18-.15v-.22zm-.78-.59h.39v-.2q0-.3-.19-.3t-.19.3z" transform="translate(822.27 -202.56)"/></symbol></svg>