<svg xmlns="http://www.w3.org/2000/svg"><symbol id="icon_brush" viewBox="0 0 24 23.54"><path d="M144.5 957c3.74.18 3.28-3.22 4.37-4.68a3.56 3.56 0 0 1 4.95-.72c5.02 3.75-3.92 10.99-9.32 5.4z" transform="translate(-144 -936)" stroke-linecap="round" stroke-linejoin="round"/><path stroke-linecap="round" stroke-linejoin="round" d="M10.82 13.32l1.62 1.62"/><path d="M154.83 952.67L167.5 939c0-1.7.2-2.5-2.5-2.5l-11.71 14.77" transform="translate(-144 -936)" stroke-linecap="round" stroke-linejoin="round"/></symbol><symbol id="icon_caret" viewBox="0 0 12.66 7.06"><path stroke-linecap="round" stroke-miterlimit="10" stroke-width=".97" d="M.48.57l5.81 5.8L12.17.48"/></symbol><symbol id="icon_close" viewBox="0 0 9 9"><path stroke-linecap="round" stroke-miterlimit="10" d="M.5 8.5l8-8m0 8l-8-8"/></symbol><symbol id="icon_logo" viewBox="0 0 440.4 312.61"><path d="M57.5 70.76l55.64-47.62h217.01l55.73 47.62-17.46 21.17h29.99l19.79-23.98L338.7 0H104.59l-79.4 67.95 19.78 23.98h30L57.5 70.76zm164.07 205.49l-70.38-85.32H121.2l100.37 121.68 100.38-121.68h-30l-70.38 85.32z"/><path d="M92 435.89H77.8v-61.53H92zm88.48 0h-15.31l-4.46-13.37h-23.38l-4.45 13.37h-15l22.83-61.53h16.7zm-22.27-23.95l-7.8-21.16q-.83-2.78-1.39-5.29h-.28a30.53 30.53 0 0 1-1.39 5.57l-7 20.88zm91.88 23.95h-13.37v-36.48q0-5.85.56-13.92H237a89.12 89.12 0 0 1-2.23 10.58l-11.42 39.82h-11.68L200.25 395q-.83-3.34-2.23-9.47h-.28q0 1.67.28 4.73.27 8.36.28 12v33.69h-13.08v-61.59h20.6l10.86 40.37q.28 1.67.84 6.68a11.65 11.65 0 0 1 .28-2.23q0-3.62.56-4.46l10.86-40.37h20.88zm86.91 0h-13.88V411.1h-26.73v24.78h-13.92v-61.52h13.92v24.78h26.73v-24.78H337zm55.92 0h-48.18v-61.53h47.33v11.41h-33.41v13.37h31.19v11.42h-31.19V425h34.25zm61.52-.28H436.9l-15-23.67h-8.07v23.95h-13.96v-61.53H428q22.56.56 23.39 18.38.27 15.31-15 18.37zm-28.68-50.39h-12v16.43h12q11.14 0 10.86-8.07.56-8.64-10.85-8.37zm92.44 20.32q-1.67 29.8-30.35 31.46-29-1.67-30.62-31.46 1.39-30.9 30.62-32 28.4 1.65 30.35 32zm-15.31 0q-.57-19.21-15.31-20-15 .84-15.87 20 .55 18.93 15.59 19.77 15.03-.56 15.59-19.77z" transform="translate(-77.8 -264.07)"/></symbol><symbol id="icon_palette" viewBox="0 0 24 22.24"><path d="M435.87 957.13a11.5 11.5 0 1 1 16.26 0 5.5 5.5 0 0 1-7.78 0l-4.24-4.24a1 1 0 0 0-1.41 1.41 2 2 0 1 1-2.83 2.83z" transform="translate(-432 -937)" stroke-linecap="round" stroke-linejoin="round"/><circle cx="448.24" cy="944.05" r="1.5" transform="rotate(-45.01 -898.48 996.946)" stroke-linecap="round" stroke-linejoin="round"/><circle cx="451" cy="949" r="1" transform="rotate(-45 -896.06 1001.97)" stroke-linecap="round" stroke-linejoin="round"/><circle cx="448.24" cy="953.95" r="2" transform="rotate(-45.01 -898.48 1006.844)" stroke-linecap="round" stroke-linejoin="round"/><circle cx="442.23" cy="942.99" r="1.5" transform="rotate(-45.01 -904.612 995.777)" stroke-linecap="round" stroke-linejoin="round"/></symbol><symbol id="icon_slider-handler" viewBox="0 0 12.15 18.23"><path d="M-81.3 305.79l-4.33-9.19a1.37 1.37 0 0 0-.55-.62 1.52 1.52 0 0 0-.8-.23 1.52 1.52 0 0 0-.8.23 1.44 1.44 0 0 0-.56.62l-4.32 9.19a5 5 0 0 0-.39 2.12 5.86 5.86 0 0 0 1.78 4.3A5.86 5.86 0 0 0-87 314a5.86 5.86 0 0 0 4.3-1.78 5.86 5.86 0 0 0 1.78-4.3 5 5 0 0 0-.38-2.13zm-7.63 4.3a.5.5 0 0 1-.5.5.5.5 0 0 1-.5-.5v-4.92a.5.5 0 0 1 .5-.5.5.5 0 0 1 .5.5zm2.44 0a.5.5 0 0 1-.5.5.5.5 0 0 1-.5-.5v-4.92a.5.5 0 0 1 .5-.5.5.5 0 0 1 .5.5zm2.5 0a.5.5 0 0 1-.5.5.5.5 0 0 1-.5-.5v-4.92a.5.5 0 0 1 .5-.5.5.5 0 0 1 .5.5z" transform="translate(93.07 -295.76)"/></symbol><symbol id="icon_tape" viewBox="0 0 24 24"><circle cx="15.5" cy="8.5" r="8" stroke-linecap="round" stroke-linejoin="round"/><path d="M394 4022.5h-7a2.5 2.5 0 0 0 0 5h17.5a2 2 0 0 1 0 4h-10" transform="translate(-384 -4008)" stroke-linecap="round" stroke-linejoin="round"/><circle cx="15.5" cy="8.5" r="1.5" stroke-linecap="round" stroke-linejoin="round"/><path d="M400.84 4013.29l1-2.29a6.41 6.41 0 0 0-4.59 0l1 2.3a3.49 3.49 0 0 1 2.68 0zm-4.34 1.87l-2.5-1a6.4 6.4 0 0 0 0 4.59l2.42-1a2.91 2.91 0 0 1 .11-2.68zm1.66 4.34l-1 2.5a6.41 6.41 0 0 0 4.59 0l-1-2.42a2.91 2.91 0 0 1-2.68-.11zm4.34-1.66l2.5 1a6.41 6.41 0 0 0 0-4.59l-2.42 1a2.91 2.91 0 0 1-.11 2.68z" transform="translate(-384 -4008)" stroke-linecap="round" stroke-linejoin="round"/></symbol></svg>