<svg xmlns="http://www.w3.org/2000/svg" viewBox="0 0 886.06 886.06"><title>Asset 1</title><rect width="886.06" height="886.06" fill="#808285"/><rect x="443.03" width="443.03" height="886.06" fill="#62686e"/><polygon points="0 0 443.03 350.86 0 886.07 0 0" fill="#878c93"/><polygon points="342.55 144.19 289.55 231.19 299.28 309.41 281.52 326.48 272.76 373.8 300.55 422.19 313.85 426.39 320.55 480.19 351.02 509 350.33 579.42 98.55 674.19 67.55 735.19 76.05 886.07 443.03 886.07 443.03 114.19 342.55 144.19" fill="#f7941d"/><polygon points="281.52 326.48 310.21 350.86 299.28 309.41 281.52 326.48" fill="#e78124"/><polygon points="272.76 373.8 313.85 426.39 300.55 422.19 272.76 373.8" fill="#e78124"/><polygon points="98.55 674.19 150.88 771.53 67.55 735.19 98.55 674.19" fill="#fdc07c"/><polygon points="350.33 579.42 402.88 746.86 313.85 771.53 350.33 579.42" fill="#e78124"/><polygon points="443.03 886.07 313.85 771.53 402.88 746.86 443.03 886.07" fill="#d66927"/><polygon points="313.85 771.53 76.05 886.07 443.03 886.07 313.85 771.53" fill="#e78124"/><polygon points="350.33 579.42 443.03 642.86 443.03 678.19 350.33 579.42" fill="#fbad45"/><polygon points="150.88 771.53 76.05 886.07 67.55 735.19 150.88 771.53" fill="#fbad45"/><polygon points="886.07 0 443.03 350.86 886.07 886.07 886.07 0" fill="#505a63"/><polygon points="886.07 0 648.15 598.65 886.07 486.07 886.07 0" fill="#3c454c"/><polygon points="668 172.69 443.03 0 886.07 0 668 172.69" fill="#3c454c"/><polygon points="150.88 771.53 350.33 579.42 98.55 674.19 150.88 771.53" fill="#fbad45"/><polygon points="543.52 144.19 596.52 231.19 586.78 309.41 604.54 326.48 613.3 373.8 585.52 422.19 572.22 426.39 565.52 480.19 535.04 509 535.74 579.42 787.52 674.19 818.52 735.19 810.02 886.07 443.03 886.07 443.03 114.19 543.52 144.19" fill="#e78124"/><polygon points="604.54 326.48 575.85 350.86 586.78 309.41 604.54 326.48" fill="#d66927"/><polygon points="351.02 509 443.03 574.19 458.29 632.42 351.02 509" fill="#d66927"/><polygon points="613.3 373.8 572.22 426.39 585.52 422.19 613.3 373.8" fill="#d66927"/><polygon points="787.52 674.19 735.18 771.53 818.52 735.19 787.52 674.19" fill="#cc6328"/><polygon points="535.74 579.42 483.19 746.86 572.22 771.53 535.74 579.42" fill="#d66927"/><polygon points="443.03 886.07 572.22 771.53 483.19 746.86 443.03 886.07" fill="#cc6328"/><polygon points="572.22 771.53 810.02 886.07 443.03 886.07 572.22 771.53" fill="#d66927"/><polygon points="535.74 579.42 443.03 642.86 443.03 678.19 535.74 579.42" fill="#f7941d"/><polygon points="735.18 771.53 810.02 886.07 818.52 735.19 735.18 771.53" fill="#d66927"/><polygon points="735.18 771.53 535.74 579.42 787.52 674.19 735.18 771.53" fill="#d66927"/><polygon points="443.03 574.19 443.03 550.31 399.63 547.09 443.03 574.19" fill="#d66927"/><polygon points="443.03 574.19 443.03 550.31 486.43 547.09 443.03 574.19" fill="#d66927"/><polygon points="443.03 114.19 441.05 182.19 289.55 231.19 342.55 144.19 443.03 114.19" fill="#fbad45"/><polygon points="443.03 114.19 445.02 182.19 596.52 231.19 543.52 144.19 443.03 114.19" fill="#d66927"/><polygon points="313.85 426.39 402.88 545.74 351.02 509 320.55 480.19 313.85 426.39" fill="#fbad45"/><polygon points="572.22 426.39 483.19 545.74 535.04 509 565.52 480.19 572.22 426.39" fill="#d66927"/><polygon points="329.37 218.31 318.88 373.8 299.28 309.41 289.55 231.19 329.37 218.31" fill="#fbad45"/><polygon points="281.52 326.48 286.39 391.24 272.76 373.8 281.52 326.48" fill="#fbad45"/><polygon points="351.02 509 378.44 598.65 350.33 579.42 351.02 509" fill="#fbad45"/><polygon points="458.29 632.42 535.74 579.42 535.04 509 443.03 574.19 458.29 632.42" fill="#d66927"/><polygon points="342.55 144.19 329.37 218.31 289.55 231.19 342.55 144.19" fill="#fdc07c"/><polygon points="0 0 237.91 598.65 0 486.07 0 0" fill="#90979e"/><polygon points="218.06 172.69 443.03 0 0 0 218.06 172.69" fill="#90979e"/></svg>