<svg id="Layer_1" xmlns="http://www.w3.org/2000/svg" viewBox="0 0 86 86"><style>.st0{fill:#fff}</style><path class="st0" d="M43 1.1C19.9 1.1 1.1 19.9 1.1 43S19.8 84.9 43 84.9 84.9 66.1 84.9 43 66.1 1.1 43 1.1zM24.5 49.5h-2.9V36.8h2.9v12.7zm18.8 25.1L26.7 54.5h5l11.6 14.1 11.6-14.1h5L43.3 74.6zM26.1 49.5l4.7-12.7h3.4L39 49.5h-3.2l-.9-2.8h-4.8l-.9 2.8h-3.1zm22.6-7.6v-5.1h2.9v12.7h-2.9v-5.1h-5.5v5.1h-2.9V36.8h2.9v5.1h5.5zm17 5.8c-.1.1-1.6 1.8-4.6 2.1v2.3h-1.7v-2.4c-3.6-.4-6-3.2-6-6.8 0-3.7 2.5-6.4 6-6.8v-2.3h1.7v2.3c2.8.2 4.2 1.8 4.2 1.9l.1.1-1.4 2v-.2s-1.4-1.4-3.4-1.4c-2.5 0-4.3 1.9-4.3 4.4 0 2.6 1.8 4.5 4.4 4.5 2.3 0 3.8-1.7 3.8-1.7l.2-.2 1 2.2zM72.5 36h-5l2.9-3.5-9.2-7.9H25.4l-9.2 7.9L19 36h-5l-3.3-4 13.1-11.2h38.7L75.6 32l-3.1 4z"/><path class="st0" d="M32.8 40.1c-.1-.4-.2-.7-.3-1.1h-.1c0 .3-.1.7-.3 1.1l-1.4 4.3h3.7l-1.6-4.3z"/></svg>