<svg xmlns="http://www.w3.org/2000/svg" viewBox="0 0 128 128"><title>Google+</title><circle cx="64" cy="64" r="64" fill="#dc4b3e"/><path d="M28.17 64c-.44-11.71 9.83-22.56 21.6-22.71a22.77 22.77 0 0 1 16.36 5.61c-1.86 2-3.76 4.07-5.77 6-4-2.43-8.8-4.27-13.46-2.63-7.53 2.14-12.08 11-9.3 18.39 2.31 7.69 11.66 11.9 19 8.67 3.8-1.36 6.29-4.86 7.39-8.62-4.35-.09-8.7 0-13-.15v-7.75h21.78c.44 6.34-.49 13.12-4.61 18.21-5.72 7.26-16.16 9.39-24.63 6.54A22.76 22.76 0 0 1 28.17 64m58.65-9.76h6.47v6.5h6.5v6.48h-6.5v6.51h-6.48v-6.5h-6.5v-6.44h6.5c0-2.16 0-4.34.05-6.5" fill="#fff"/></svg>