<svg xmlns="http://www.w3.org/2000/svg" width="595.28" height="841.89" viewBox="0 0 595.28 841.89"><path fill="#FFF" d="M135.301 334.825l55.636-47.618h217.019l55.726 47.625L446.221 356h29.994L496 332.015l-79.502-67.947h-234.11l-79.394 67.953L122.773 356h29.995zm164.074 205.494L228.996 455H199l100.375 121.683L399.748 455h-29.996zM92 435.886H77.801v-61.53H92v61.53zm88.482 0H165.17l-4.458-13.365h-23.387l-4.453 13.365h-15.034l22.829-61.53h16.703l23.112 61.53zm-22.271-23.946l-7.799-21.158a75.188 75.188 0 0 1-1.391-5.292h-.278c-.187 1.488-.652 3.342-1.391 5.569l-6.962 20.881h17.821zm91.876 23.946h-13.363v-36.474c0-3.897.182-8.532.556-13.922h-.275c-.559 3.715-1.301 7.24-2.228 10.58l-11.415 39.815h-11.694l-11.416-40.929a467.965 467.965 0 0 1-2.228-9.467h-.28c0 1.115.093 2.693.28 4.734.182 5.57.279 9.56.279 11.973v33.688h-13.086v-61.53h20.601l10.86 40.368c.185 1.114.461 3.342.835 6.685 0-.558.089-1.298.278-2.227 0-2.41.184-3.898.558-4.458l10.859-40.368h20.879v61.532zm86.956 0h-13.924v-24.781h-26.727v24.781h-13.92v-61.53h13.92v24.778h26.727v-24.778h13.924v61.53zm55.873 0h-48.172v-61.53h47.334v11.413h-33.414v13.365h31.188v11.417h-31.188v14.475h34.252v10.86zm61.527-.28h-17.541l-15.035-23.666h-8.072v23.945h-13.922v-61.53h28.119c15.037.373 22.832 6.498 23.389 18.375.182 10.209-4.826 16.336-15.035 18.374l18.097 24.502zm-28.677-50.394h-11.971v16.428h11.971c7.424 0 11.041-2.688 10.861-8.074.369-5.751-3.252-8.536-10.861-8.354zm92.437 20.325c-1.116 19.866-11.232 30.349-30.35 31.463-19.305-1.114-29.513-11.597-30.623-31.463.926-20.603 11.136-31.274 30.623-32.017 18.933 1.111 29.047 11.79 30.35 32.017zm-15.312 0c-.377-12.807-5.479-19.49-15.312-20.047-10.023.557-15.313 7.24-15.873 20.047.369 12.623 5.568 19.212 15.594 19.77 10.022-.369 15.214-6.96 15.591-19.77z"/></svg>