<svg xmlns="http://www.w3.org/2000/svg" viewBox="0 0 128 128"><title>Twitter</title><circle cx="64" cy="64" r="64" fill="#55acee"/><path d="M99.84 41.77a29.38 29.38 0 0 1-8.45 2.32 14.75 14.75 0 0 0 6.47-8.14 29.43 29.43 0 0 1-9.34 3.57 14.72 14.72 0 0 0-25.06 13.41 41.75 41.75 0 0 1-30.31-15.36A14.72 14.72 0 0 0 37.7 57.2a14.64 14.64 0 0 1-6.7-1.84v.19A14.72 14.72 0 0 0 42.84 70a14.74 14.74 0 0 1-6.64.25 14.72 14.72 0 0 0 13.73 10.18 29.5 29.5 0 0 1-18.26 6.3 29.9 29.9 0 0 1-3.51-.21 41.62 41.62 0 0 0 22.54 6.61c27 0 41.84-22.41 41.84-41.84v-1.9a29.87 29.87 0 0 0 7.3-7.62z" fill="#fff"/></svg>