<svg xmlns="http://www.w3.org/2000/svg" xmlns:xlink="http://www.w3.org/1999/xlink" viewBox="0 0 446.06 318.59"><defs><linearGradient id="a" x1="299.44" y1="744.83" x2="299.73" y2="1057.08" gradientTransform="translate(-77.8 -738.2)" gradientUnits="userSpaceOnUse"><stop offset="0" stop-color="#fff"/><stop offset="1" stop-color="#d8dce8"/></linearGradient><linearGradient id="b" x1="299.17" y1="744.83" x2="299.46" y2="1057.08" xlink:href="#a"/><linearGradient id="c" x1="6.97" y1="480.96" x2="7.26" y2="793.21" gradientTransform="translate(0 -480.12)" xlink:href="#a"/><linearGradient id="d" x1="71.19" y1="480.9" x2="71.48" y2="793.15" gradientTransform="translate(0 -480.12)" xlink:href="#a"/><linearGradient id="e" x1="139.82" y1="480.84" x2="140.11" y2="793.09" gradientTransform="translate(0 -480.12)" xlink:href="#a"/><linearGradient id="f" x1="231.82" y1="480.75" x2="232.11" y2="793" gradientTransform="translate(0 -480.12)" xlink:href="#a"/><linearGradient id="g" x1="290.85" y1="480.7" x2="291.13" y2="792.95" gradientTransform="translate(0 -480.12)" xlink:href="#a"/><linearGradient id="h" x1="349.19" y1="480.65" x2="349.48" y2="792.89" gradientTransform="translate(0 -480.12)" xlink:href="#a"/><linearGradient id="i" x1="409.82" y1="480.59" x2="410.11" y2="792.84" gradientTransform="translate(0 -480.12)" xlink:href="#a"/></defs><title>logo_light-fd52eb5c8f0d8c80346d25201782307a8e6d296e17ce55be3488d82633b0cd27</title><path fill="url(#a)" d="M330.2 29.09l55.7 47.7-17.5 21.1h30l19.8-24-79.5-67.9H104.6l-79.4 67.9 19.8 24h30l-17.5-21.2 55.6-47.6h217.1z"/><path fill="url(#b)" d="M121.2 196.89l100.4 121.7 100.3-121.7h-30l-70.3 85.3-70.4-85.3h-30z"/><path d="M14.2 171.8H0v-61.5h14.2z" transform="translate(0 5.99)" fill="url(#c)"/><path d="M102.7 171.8H87.4l-4.5-13.4H59.5L55 171.8H40l22.8-61.5h16.7zm-22.3-23.9l-7.8-21.2c-.6-1.9-1-3.6-1.4-5.3h-.3a37.7 37.7 0 0 1-1.4 5.6l-7 20.9z" transform="translate(0 5.99)" fill="url(#d)"/><path d="M172.3 171.8h-13.4v-36.5c0-3.9.2-8.5.6-13.9h-.3c-.6 3.7-1.3 7.2-2.2 10.6l-11.4 39.8h-11.7l-11.4-40.9c-.6-2.2-1.3-5.4-2.2-9.5h-.3c0 1.1.1 2.7.3 4.7q.3 8.4.3 12v33.7h-13.1v-61.5H128l10.9 40.4c.2 1.1.5 3.3.8 6.7a10.33 10.33 0 0 1 .3-2.2q0-3.6.6-4.5l10.9-40.4h20.9z" transform="translate(0 5.99)" fill="url(#e)"/><path d="M259.2 171.8h-13.9V147h-26.7v24.8h-13.9v-61.5h13.9v24.8h26.7v-24.8h13.9z" transform="translate(0 5.99)" fill="url(#f)"/><path d="M315.1 171.8h-48.2v-61.5h47.3v11.4h-33.4v13.4H312v11.4h-31.2V161h34.3v10.8z" transform="translate(0 5.99)" fill="url(#g)"/><path d="M376.6 171.5h-17.5l-15-23.7H336v23.9h-13.9v-61.5h28.1c15 .4 22.8 6.5 23.4 18.4.2 10.2-4.8 16.3-15 18.4zM348 121.1h-12v16.4h12c7.4 0 11-2.7 10.9-8.1.3-5.7-3.3-8.4-10.9-8.3z" transform="translate(0 5.99)" fill="url(#h)"/><path d="M440.4 141.5c-1.1 19.9-11.2 30.3-30.3 31.5q-28.95-1.65-30.6-31.5 1.35-30.9 30.6-32c18.9 1.1 29 11.7 30.3 32zm-15.3 0c-.4-12.8-5.5-19.5-15.3-20-10 .6-15.3 7.2-15.9 20q.6 18.9 15.6 19.8 15-.6 15.6-19.8z" transform="translate(0 5.99)" fill="url(#i)"/><text transform="translate(392.51 31.88)" font-size="37" fill="#fff" font-family="ArialMT, Arial" style="isolation:isolate">TM</text><text transform="translate(392.51 31.88)" font-size="37" fill="none" stroke="#000" stroke-miterlimit="10" stroke-width=".25" font-family="ArialMT, Arial" style="isolation:isolate">TM</text></svg>